<svg width="141" height="32" viewBox="0 0 141 32" fill="none" xmlns="http://www.w3.org/2000/svg">
<g clip-path="url(#clip0_1014_16340)">
<path fill-rule="evenodd" clip-rule="evenodd" d="M36.6001 0.154297H40.9835V26.2098H36.6001V0.154297Z" fill="white"/>
<path fill-rule="evenodd" clip-rule="evenodd" d="M19.493 9.56116C19.493 8.94457 19.0712 8.60889 18.587 8.60889C18.1052 8.60889 17.6725 8.9349 17.6725 9.56116V22.1099C17.6725 22.7353 18.1049 23.0622 18.587 23.0622C19.0714 23.0622 19.493 22.7207 19.493 22.1099V17.9976H23.8721V21.7882C23.8721 24.863 21.4653 26.4655 18.5667 26.4655C15.7945 26.4655 13.2925 24.9145 13.2925 21.7882V9.8803C13.2925 6.76062 15.7947 5.20508 18.5667 5.20508C21.4163 5.20508 23.8721 6.80894 23.8721 9.8803V13.2747H19.493V9.56116Z" fill="white"/>
<path fill-rule="evenodd" clip-rule="evenodd" d="M29.3225 10.1265C29.3225 9.50044 29.7537 9.17443 30.2357 9.17443C30.7195 9.17443 31.1432 9.51204 31.1432 10.1265V26.212H35.5264V8.97771C35.5264 6.16922 33.7147 5.20171 32.332 5.20171C30.7872 5.20171 29.7019 6.32342 29.4024 6.89298H29.3315V0.154297H24.9482V26.212H29.3223V10.1265H29.3225Z" fill="white"/>
<path fill-rule="evenodd" clip-rule="evenodd" d="M48.254 21.7348C48.254 22.3478 47.8305 22.6875 47.3466 22.6875C46.866 22.6875 46.4333 22.3609 46.4333 21.7348V5.44727H42.0522V22.7425C42.0522 25.0358 43.6265 26.4657 45.3157 26.4657C47.0274 26.4657 47.9564 25.2192 48.2194 24.7626H48.3182L48.3966 26.2116H52.6353V5.44727H48.2542V21.7348H48.254Z" fill="white"/>
<path fill-rule="evenodd" clip-rule="evenodd" d="M58.0856 26.2114H53.7041V5.44708H58.0437L58.0875 6.89545H58.1752C58.4967 6.25825 59.5393 5.20117 61.1193 5.20117C62.7555 5.20117 63.8075 6.46743 64.0321 7.21245H64.0941C64.4212 6.45497 65.5683 5.20117 67.228 5.20117C68.9049 5.20117 70.5116 6.34394 70.5116 9.17025V26.2114H66.1286V9.92042C66.1286 9.29288 65.6998 8.96622 65.2171 8.96622C64.7329 8.96622 64.3058 9.30319 64.3058 9.92042V26.2114H59.9025V9.92794C59.9025 9.30018 59.4659 8.97374 58.9841 8.97374C58.4999 8.97374 58.0854 9.31199 58.0854 9.92794V26.2114H58.0856Z" fill="white"/>
<path fill-rule="evenodd" clip-rule="evenodd" d="M78.8561 5.20171C77.3896 5.2002 76.3344 6.4482 76.0582 6.90329H75.9646V0.154297H71.582V26.212H75.9156L75.9646 24.7629H76.0582C76.2774 25.3222 77.2177 26.4579 78.8251 26.46C80.6804 26.4624 82.189 24.8561 82.189 22.4272V8.97771C82.189 6.64192 80.6161 5.20171 78.8561 5.20171ZM77.7913 21.7423C77.7913 22.3576 77.3676 22.6954 76.8815 22.6954C76.4001 22.6954 75.9667 22.3672 75.9667 21.7423V9.93449C75.9667 9.30823 76.4001 8.98222 76.8815 8.98222C77.3674 8.98222 77.7913 9.32133 77.7913 9.93449V21.7423Z" fill="white"/>
<path fill-rule="evenodd" clip-rule="evenodd" d="M87.6407 22.12C87.6407 22.746 88.0753 23.0729 88.5576 23.0729C89.0398 23.0729 89.4629 22.7353 89.4629 22.12V17.9976H93.8433V21.7847C93.8433 24.916 91.2785 26.4657 88.5392 26.4657C85.7648 26.4657 83.2534 24.916 83.2534 21.7847V9.8876C83.2534 6.76642 85.761 5.20508 88.5355 5.20508C91.3828 5.20508 93.8431 6.80164 93.8431 9.8876V16.5969H87.6403V22.12H87.6407ZM89.4631 13.4304V9.56481C89.4631 8.95058 89.04 8.61276 88.5578 8.61276C88.0755 8.61276 87.6409 8.93705 87.6409 9.56481L87.6447 13.4304H89.4631Z" fill="white"/>
<path fill-rule="evenodd" clip-rule="evenodd" d="M100.221 8.97717C99.741 8.97717 99.304 9.30319 99.304 9.93137V26.2114H94.9185V5.44708H99.2162L99.3004 6.89245H99.3974C99.8111 6.31537 100.869 5.20117 102.333 5.20117C104.03 5.20117 105.512 6.58404 105.512 8.78045V16.5747H101.126V9.79349C101.126 9.29674 100.653 8.97717 100.211 8.97717H100.221Z" fill="white"/>
<path fill-rule="evenodd" clip-rule="evenodd" d="M122.604 22.12C122.604 22.746 123.04 23.0729 123.521 23.0729C124.005 23.0729 124.427 22.7353 124.427 22.12V17.9976H128.808V21.7847C128.808 24.916 126.238 26.4657 123.503 26.4657C120.728 26.4657 118.221 24.916 118.221 21.7847V9.8876C118.221 6.76642 120.725 5.20508 123.499 5.20508C126.346 5.20508 128.808 6.80164 128.808 9.8876V16.5969H122.604V22.12ZM124.427 13.4304V9.56481C124.427 8.95058 124.005 8.61276 123.521 8.61276C123.04 8.61276 122.604 8.93705 122.604 9.56481L122.608 13.4304H124.427Z" fill="white"/>
<path fill-rule="evenodd" clip-rule="evenodd" d="M135.172 8.97717C134.685 8.97717 134.253 9.30319 134.253 9.93137V26.2114H129.866V5.44708H134.161L134.249 6.89245H134.344C134.758 6.31537 135.818 5.20117 137.283 5.20117C138.981 5.20117 140.462 6.58404 140.462 8.78045V16.5747H136.073V9.79349C136.073 9.29674 135.601 8.97717 135.16 8.97717H135.172Z" fill="white"/>
<path fill-rule="evenodd" clip-rule="evenodd" d="M112.777 20.4409C112.777 21.0538 112.356 21.3917 111.871 21.3917C111.39 21.3917 110.956 21.0672 110.956 20.4409V9.93739C110.956 9.31349 111.39 8.98898 111.871 8.98898C112.356 8.98898 112.777 9.3238 112.777 9.93739V20.4409ZM112.777 27.7324C112.777 28.3468 112.354 28.6829 111.871 28.6829C111.39 28.6829 110.956 28.3563 110.956 27.7324V26.0484H106.58V27.1929C106.58 30.4386 108.808 31.8827 111.856 31.8827C114.88 31.8827 117.161 30.4386 117.161 27.1929V5.44708H112.842L112.777 6.90276H112.671C112.442 6.42705 111.416 5.20117 109.781 5.20117C108.201 5.20117 106.58 6.42125 106.58 8.67629V21.0775C106.58 23.4523 108.097 24.8389 109.807 24.8389C111.432 24.8389 112.378 23.7472 112.647 23.3149H112.776V27.7324H112.777Z" fill="white"/>
<path fill-rule="evenodd" clip-rule="evenodd" d="M5.41616 21.7852C5.41616 22.4127 5.85054 22.7394 6.33303 22.7394C6.81637 22.7394 7.23708 22.3994 7.23708 21.7852V19.3229C7.23708 17.358 6.8183 16.6443 5.36613 15.2733C4.12839 14.1032 3.50374 13.5013 2.70402 12.7438C1.6809 11.7718 0.500653 10.4181 0.500653 7.88858V4.7674C0.499371 1.34147 3.33721 0.0664062 6.32704 0.0664062C9.30747 0.0664062 12.122 1.36939 12.122 4.74313V8.76719H7.23686V4.86276C7.23686 4.24767 6.81488 3.90984 6.33089 3.90984C5.84862 3.90984 5.41616 4.23714 5.41616 4.86276V6.73744C5.41616 8.36128 5.92216 9.07537 7.26209 10.3607C7.80101 10.879 9.0208 12.0711 9.95969 12.991C11.6385 14.6432 12.2189 16.1334 12.2189 18.1829V21.6711C12.2189 25.2981 9.31303 26.5716 6.32704 26.5716C3.30258 26.5719 0.48291 25.2981 0.48291 21.8438V16.8471H5.41616V21.7852Z" fill="white"/>
</g>
<defs>
<clipPath id="clip0_1014_16340">
<rect width="140.235" height="32" fill="white" transform="translate(0.382324)"/>
</clipPath>
</defs>
</svg>
