<svg aria-hidden="true" style="position:absolute;width:0;height:0" xmlns="http://www.w3.org/2000/svg" overflow="hidden"><defs>
<symbol id="search_icon" viewBox="0 0 16 16">
<path fill-rule="evenodd" clip-rule="evenodd" d="M2 7.27777C2 4.36294 4.36294 2 7.27777 2C10.1926 2 12.5555 4.36294 12.5555 7.27777C12.5555 8.70633 11.988 10.0023 11.066 10.9526C11.0446 10.9681 11.0241 10.9855 11.0048 11.0048C10.9854 11.0241 10.968 11.0446 10.9526 11.066C10.0023 11.988 8.70633 12.5555 7.27777 12.5555C4.36294 12.5555 2 10.1926 2 7.27777ZM11.3492 12.0564C10.2531 12.9912 8.83134 13.5555 7.27777 13.5555C3.81065 13.5555 1 10.7449 1 7.27777C1 3.81065 3.81065 1 7.27777 1C10.7449 1 13.5555 3.81065 13.5555 7.27777C13.5555 8.83134 12.9912 10.2531 12.0564 11.3493L14.8535 14.1464C15.0488 14.3417 15.0488 14.6583 14.8535 14.8535C14.6583 15.0488 14.3417 15.0488 14.1464 14.8535L11.3492 12.0564Z"/>
</symbol>
<symbol id="filter_icon" viewBox="0 0 16 16">
<path fill-rule="evenodd" clip-rule="evenodd" d="M0.879944 1.78956C0.961873 1.61298 1.13884 1.5 1.3335 1.5H14.6668C14.8615 1.5 15.0385 1.61298 15.1204 1.78956C15.2023 1.96614 15.1743 2.17422 15.0486 2.32286L9.8335 8.48974V14C9.8335 14.1733 9.74378 14.3342 9.59637 14.4253C9.44896 14.5164 9.26489 14.5247 9.1099 14.4472L6.44323 13.1139C6.27384 13.0292 6.16684 12.8561 6.16684 12.6667V8.48974L0.951718 2.32286C0.826019 2.17422 0.798015 1.96614 0.879944 1.78956ZM2.41115 2.5L7.04862 7.9838C7.12495 8.07407 7.16684 8.18846 7.16684 8.30667V12.3577L8.8335 13.191V8.30667C8.8335 8.18846 8.87539 8.07407 8.95172 7.9838L13.5892 2.5H2.41115Z"/>
</symbol>
<symbol id="home_icon" viewBox="0 0 20 20">
<path fill-rule="evenodd" clip-rule="evenodd" d="M9.61629 1.17331C9.84198 0.997772 10.158 0.997772 10.3837 1.17331L17.8837 7.00665C18.036 7.12506 18.125 7.30712 18.125 7.49999V16.6667C18.125 17.2744 17.8836 17.8573 17.4538 18.2871C17.024 18.7169 16.4411 18.9583 15.8333 18.9583H4.16667C3.55888 18.9583 2.97598 18.7169 2.54621 18.2871C2.11644 17.8573 1.875 17.2744 1.875 16.6667V7.49999C1.875 7.30712 1.96405 7.12506 2.11629 7.00665L9.61629 1.17331ZM3.125 7.80567V16.6667C3.125 16.9429 3.23475 17.2079 3.4301 17.4032C3.62545 17.5986 3.8904 17.7083 4.16667 17.7083H15.8333C16.1096 17.7083 16.3746 17.5986 16.5699 17.4032C16.7653 17.2079 16.875 16.9429 16.875 16.6667V7.80567L10 2.45845L3.125 7.80567Z"/>
<path fill-rule="evenodd" clip-rule="evenodd" d="M6.875 10C6.875 9.65482 7.15482 9.375 7.5 9.375H12.5C12.8452 9.375 13.125 9.65482 13.125 10V18.3333C13.125 18.6785 12.8452 18.9583 12.5 18.9583C12.1548 18.9583 11.875 18.6785 11.875 18.3333V10.625H8.125V18.3333C8.125 18.6785 7.84518 18.9583 7.5 18.9583C7.15482 18.9583 6.875 18.6785 6.875 18.3333V10Z"/>
</symbol>
<symbol id="map_icon" viewBox="0 0 16 16">
<path fill-rule="evenodd" clip-rule="evenodd" d="M8 1.16666C6.54131 1.16666 5.14236 1.74612 4.11091 2.77757C3.07946 3.80902 2.5 5.20797 2.5 6.66666C2.5 8.79902 3.88287 10.8438 5.36298 12.4061C6.09281 13.1765 6.82433 13.8066 7.37396 14.2443C7.62883 14.4472 7.84371 14.6081 8 14.7217C8.15629 14.6081 8.37117 14.4472 8.62604 14.2443C9.17567 13.8066 9.90719 13.1765 10.637 12.4061C12.1171 10.8438 13.5 8.79902 13.5 6.66666C13.5 5.20797 12.9205 3.80902 11.8891 2.77757C10.8576 1.74612 9.45869 1.16666 8 1.16666ZM8 15.3333C7.72265 15.7493 7.72252 15.7493 7.72236 15.7492L7.72068 15.748L7.71653 15.7452L7.70186 15.7353C7.68928 15.7268 7.67119 15.7144 7.64793 15.6983C7.60143 15.6661 7.53429 15.6189 7.44944 15.5577C7.2798 15.4352 7.03912 15.2559 6.75104 15.0265C6.17567 14.5684 5.40719 13.9068 4.63702 13.0939C3.11713 11.4895 1.5 9.20096 1.5 6.66666C1.5 4.94275 2.18482 3.28945 3.40381 2.07046C4.62279 0.851476 6.27609 0.166656 8 0.166656C9.72391 0.166656 11.3772 0.851476 12.5962 2.07046C13.8152 3.28945 14.5 4.94275 14.5 6.66666C14.5 9.20096 12.8829 11.4895 11.363 13.0939C10.5928 13.9068 9.82433 14.5684 9.24896 15.0265C8.96088 15.2559 8.7202 15.4352 8.55056 15.5577C8.46571 15.6189 8.39857 15.6661 8.35207 15.6983C8.32881 15.7144 8.31072 15.7268 8.29814 15.7353L8.28347 15.7452L8.27932 15.748L8.27764 15.7492C8.27748 15.7493 8.27735 15.7493 8 15.3333ZM8 15.3333L8.27764 15.7492C8.10969 15.8611 7.89031 15.8611 7.72236 15.7492L8 15.3333Z"/>
<path fill-rule="evenodd" clip-rule="evenodd" d="M8 5.16666C7.17157 5.16666 6.5 5.83823 6.5 6.66666C6.5 7.49508 7.17157 8.16666 8 8.16666C8.82843 8.16666 9.5 7.49508 9.5 6.66666C9.5 5.83823 8.82843 5.16666 8 5.16666ZM5.5 6.66666C5.5 5.28594 6.61929 4.16666 8 4.16666C9.38071 4.16666 10.5 5.28594 10.5 6.66666C10.5 8.04737 9.38071 9.16666 8 9.16666C6.61929 9.16666 5.5 8.04737 5.5 6.66666Z"/>
</symbol>
<symbol id="equipment_icon" viewBox="0 0 16 16">
<path fill-rule="evenodd" clip-rule="evenodd" d="M7.8143 0.0357617C7.93351 -0.0119206 8.06649 -0.0119206 8.1857 0.0357617L15.6857 3.03576C15.8755 3.11169 16 3.29555 16 3.5V12.5C16 12.7045 15.8755 12.8883 15.6857 12.9642L8.1857 15.9642C8.06649 16.0119 7.93351 16.0119 7.8143 15.9642L0.314305 12.9642C0.124475 12.8883 0 12.7045 0 12.5V3.5C0 3.29555 0.124475 3.11169 0.314305 3.03576L7.8143 0.0357617ZM1 4.23852V12.1615L7.5 14.7615V6.83852L1 4.23852ZM15 12.1615L8.5 14.7615V6.83852L15 4.23852V12.1615ZM14.1537 3.5L8 5.96148L5.60282 5.00261L11.7196 2.54363C11.7267 2.54079 11.7336 2.53781 11.7405 2.5347L14.1537 3.5ZM10.3973 1.99743L8 1.03852L1.84629 3.5L4.25964 4.46534C4.26647 4.46223 4.27341 4.45926 4.28044 4.45643L10.3973 1.99743Z"/>
</symbol>
<symbol id="support_icon" viewBox="0 0 17 16">
<path fill-rule="evenodd" clip-rule="evenodd" d="M4.51757 3.15032C3.81719 3.97715 3.58423 4.97429 3.58423 5.62117V6.39703L3.58427 6.40862V9.55851C3.58427 10.4102 2.89383 11.1006 2.04213 11.1006C1.19044 11.1006 0.5 10.4102 0.5 9.55851V6.40862C0.5 5.55693 1.19044 4.86649 2.04213 4.86649C2.25763 4.86649 2.4628 4.91069 2.64908 4.99052C2.76373 4.22725 3.09172 3.31068 3.76647 2.5141C4.65695 1.46284 6.11262 0.666656 8.34188 0.666656C10.5711 0.666656 12.0268 1.46284 12.9173 2.5141C13.592 3.31069 13.92 4.22726 14.0347 4.99054C14.221 4.9107 14.4261 4.86649 14.6417 4.86649C15.4934 4.86649 16.1838 5.55693 16.1838 6.40862V9.55851C16.1838 10.4102 15.4934 11.1006 14.6417 11.1006C14.328 11.1006 14.0361 11.007 13.7926 10.8461C13.6757 11.1853 13.5117 11.5432 13.2818 11.8949C12.6669 12.8359 11.6205 13.6761 9.89032 14.0479C9.75438 14.7795 9.11284 15.3333 8.34194 15.3333C7.47212 15.3333 6.767 14.6282 6.767 13.7584C6.767 12.8886 7.47212 12.1834 8.34194 12.1834C8.96476 12.1834 9.50313 12.545 9.75867 13.0696C11.2173 12.7387 12.0115 12.0395 12.4578 11.3564C13.0962 10.3796 13.0995 9.32436 13.0995 9.03356V5.62117C13.0995 4.97429 12.8666 3.97715 12.1662 3.15032C11.4817 2.34226 10.3125 1.651 8.34188 1.651C6.37128 1.651 5.20204 2.34226 4.51757 3.15032ZM2.59989 6.40163C2.59614 6.09679 2.34786 5.85083 2.04213 5.85083C1.73407 5.85083 1.48434 6.10056 1.48434 6.40862V9.55851C1.48434 9.86658 1.73407 10.1163 2.04213 10.1163C2.35019 10.1163 2.59993 9.86657 2.59993 9.55851V9.03356H2.59989V6.40163ZM14.6417 5.85083C14.3336 5.85083 14.0839 6.10056 14.0839 6.40862V9.55851C14.0839 9.86658 14.3336 10.1163 14.6417 10.1163C14.9497 10.1163 15.1995 9.86657 15.1995 9.55851V6.40862C15.1995 6.10056 14.9497 5.85083 14.6417 5.85083Z"/>
</symbol>
<symbol id="dropdown_icon" viewBox="0 0 10 6">
<path fill-rule="evenodd" clip-rule="evenodd" d="M0.646447 0.646447C0.841709 0.451184 1.15829 0.451184 1.35355 0.646447L5 4.29289L8.64645 0.646447C8.84171 0.451184 9.15829 0.451184 9.35355 0.646447C9.54882 0.841709 9.54882 1.15829 9.35355 1.35355L5.35355 5.35355C5.15829 5.54882 4.84171 5.54882 4.64645 5.35355L0.646447 1.35355C0.451184 1.15829 0.451184 0.841709 0.646447 0.646447Z"/>
</symbol>
<symbol id="bell_icon" viewBox="0 0 10 12">
<path d="M5.04808 12C5.725 12 6.27885 11.4462 6.27885 10.7692H3.81731C3.81731 11.0957 3.94698 11.4087 4.17779 11.6395C4.40861 11.8703 4.72166 12 5.04808 12ZM8.74039 8.30769V5.23077C8.74039 3.34154 7.73115 1.76 5.97115 1.34154V0H4.125V1.34154C2.35885 1.76 1.35577 3.33538 1.35577 5.23077V8.30769L0.125 9.53846V10.1538H9.97115V9.53846L8.74039 8.30769Z"/>
</symbol>
<symbol id="showpass_icon" viewBox="0 0 24 24">
<path fill-rule="evenodd" clip-rule="evenodd" d="M11.9996 5.75C7.97554 5.75 4.88879 8.8359 3.32573 11.2114C2.99534 11.7135 2.98024 12.3442 3.283 12.8463C4.6929 15.1847 7.65214 18.25 11.9996 18.25C16.347 18.25 19.3062 15.1847 20.7161 12.8463C21.0189 12.3442 21.0038 11.7135 20.6734 11.2114C19.1103 8.8359 16.0236 5.75 11.9996 5.75ZM2.07267 10.3869C3.72465 7.87623 7.20407 4.25 11.9996 4.25C16.7951 4.25 20.2745 7.87623 21.9265 10.3869C22.5662 11.3591 22.6093 12.6116 22.0007 13.6209C20.468 16.1629 17.1078 19.75 11.9996 19.75C6.89138 19.75 3.53115 16.1629 1.99843 13.6209C1.38987 12.6116 1.43293 11.3591 2.07267 10.3869Z"/>
<path fill-rule="evenodd" clip-rule="evenodd" d="M12 14.25C13.2426 14.25 14.25 13.2426 14.25 12C14.25 10.7574 13.2426 9.75 12 9.75C10.7574 9.75 9.75 10.7574 9.75 12C9.75 13.2426 10.7574 14.25 12 14.25ZM12 15.75C14.0711 15.75 15.75 14.0711 15.75 12C15.75 9.92893 14.0711 8.25 12 8.25C9.92893 8.25 8.25 9.92893 8.25 12C8.25 14.0711 9.92893 15.75 12 15.75Z"/>
</symbol>
<symbol id="hidepass_icon" viewBox="0 0 24 24">
<path fill-rule="evenodd" clip-rule="evenodd" d="M23.0898 3.28667C23.3457 3.61237 23.2891 4.08386 22.9634 4.33977L1.9634 20.8398C1.63769 21.0957 1.1662 21.0391 0.910293 20.7134C0.654383 20.3877 0.710962 19.9162 1.03667 19.6603L22.0367 3.16029C22.3624 2.90438 22.8339 2.96096 23.0898 3.28667Z"/>
<path fill-rule="evenodd" clip-rule="evenodd" d="M3.32671 11.2114C4.88977 8.8359 7.97651 5.75 12.0005 5.75C14.2605 5.75 16.2248 6.72329 17.7896 7.99743L18.9947 7.05057C17.1884 5.50555 14.8223 4.25 12.0005 4.25C7.20505 4.25 3.72563 7.87623 2.07364 10.3869C1.43391 11.3591 1.39085 12.6116 1.99941 13.6209C2.75462 14.8734 3.95351 16.3796 5.58657 17.5855L6.81689 16.6188C5.21839 15.5349 4.03271 14.0881 3.28397 12.8463C2.98122 12.3442 2.99632 11.7135 3.32671 11.2114ZM8.22738 17.4182L6.92409 18.4422C8.35917 19.2285 10.0528 19.75 12.0005 19.75C17.1087 19.75 20.469 16.1629 22.0017 13.6209C22.6102 12.6116 22.5672 11.3591 21.9274 10.3869C21.4596 9.67583 20.8452 8.87532 20.0958 8.09303L18.9111 9.02387C19.6211 9.74998 20.2139 10.5115 20.6744 11.2114C21.0048 11.7135 21.0199 12.3442 20.7171 12.8463C19.3072 15.1847 16.348 18.25 12.0005 18.25C10.5961 18.25 9.33661 17.9301 8.22738 17.4182Z"/>
<path fill-rule="evenodd" clip-rule="evenodd" d="M15.1951 10.0358C14.535 8.96431 13.3509 8.25 12 8.25C9.92893 8.25 8.25 9.92893 8.25 12C8.25 13.0293 8.66468 13.9617 9.33608 14.6393L10.5287 13.7023C10.0517 13.2897 9.75 12.6801 9.75 12C9.75 10.7574 10.7574 9.75 12 9.75C12.8726 9.75 13.6292 10.2468 14.0024 10.9729L15.1951 10.0358ZM12.2817 14.2325C13.1183 14.128 13.8122 13.5642 14.1031 12.8015L15.7209 11.5303C15.7401 11.6842 15.75 11.8409 15.75 12C15.75 14.0711 14.0711 15.75 12 15.75C11.5289 15.75 11.0781 15.6631 10.6628 15.5046L12.2817 14.2325Z"/>
</symbol>
<symbol id="sticky_phone_icon" viewBox="0 0 19 24">
<path d="M4.8598 0.127714C5.51618 -0.0701856 6.22053 -0.0373077 6.85562 0.220874C7.4907 0.479056 8.0182 0.946967 8.35031 1.54671L8.4628 1.77021L9.45431 3.97671C9.75567 4.64644 9.85349 5.38998 9.73561 6.11487C9.61773 6.83975 9.28935 7.51399 8.7913 8.05371L8.5933 8.25171L7.02731 9.71121C6.74531 9.97821 6.9568 11.0117 7.97831 12.7787C8.89481 14.3687 9.64331 15.1112 10.0093 15.1517H10.0738L10.1533 15.1367L13.2283 14.1962C13.6416 14.0695 14.0826 14.0645 14.4986 14.1818C14.9147 14.2991 15.2881 14.5337 15.5743 14.8577L15.7123 15.0302L17.7463 17.8502C18.1454 18.4028 18.3445 19.0748 18.3107 19.7556C18.2769 20.4364 18.0122 21.0854 17.5603 21.5957L17.3773 21.7847L16.5628 22.5557C15.8327 23.2471 14.9195 23.7143 13.9317 23.9018C12.9438 24.0892 11.9229 23.9891 10.9903 23.6132C8.08781 22.4432 5.4508 19.7702 3.0553 15.6212C0.655304 11.4617 -0.342196 7.83621 0.103304 4.73121C0.238246 3.79244 0.62497 2.90776 1.22239 2.17116C1.81981 1.43455 2.60561 0.873534 3.4963 0.547714L3.7858 0.451714L4.8598 0.127714V0.127714Z"/>
</symbol>
<symbol id="sticky_msg_icon" viewBox="0 0 24 24">
<path d="M20 2H4C2.9 2 2 2.9 2 4V22L6 18H20C21.1 18 22 17.1 22 16V4C22 2.9 21.1 2 20 2Z"/>
</symbol>
<symbol id="sticky_time_icon" viewBox="0 0 22 22">
<path fill-rule="evenodd" clip-rule="evenodd" d="M7 5H4.11409C6.04466 2.79137 8.15921 2 11 2C15.9706 2 20 6.02944 20 11C20 15.9706 15.9706 20 11 20C6.02944 20 2 15.9706 2 11H0C0 17.0751 4.92487 22 11 22C17.0751 22 22 17.0751 22 11C22 4.92487 17.0751 0 11 0C7.78663 0 5.23708 0.910558 3 3.25645V0.991211H1V7H7V5ZM16 10H12V5H10V12H16V10Z"/>
</symbol>
<symbol id="tick_icon" viewBox="0 0 9 6">
<path fill-rule="evenodd" clip-rule="evenodd" d="M8.103 0.145894C8.29857 0.34085 8.29906 0.657432 8.10411 0.853L3.11973 5.853C3.02592 5.94711 2.8985 6 2.76562 6C2.63275 6 2.50533 5.94711 2.41152 5.853L0.145894 3.58027C-0.0490626 3.38471 -0.0485671 3.06812 0.147 2.87317C0.342568 2.67821 0.65915 2.67871 0.854106 2.87427L2.76562 4.79178L7.39589 0.147C7.59085 -0.0485671 7.90743 -0.0490626 8.103 0.145894Z"/>
</symbol>
<symbol id="cross_icon" viewBox="0 0 32 32">
<path fill-rule="evenodd" clip-rule="evenodd" d="M24.7071 7.29289C25.0976 7.68342 25.0976 8.31658 24.7071 8.70711L8.70711 24.7071C8.31658 25.0976 7.68342 25.0976 7.29289 24.7071C6.90237 24.3166 6.90237 23.6834 7.29289 23.2929L23.2929 7.29289C23.6834 6.90237 24.3166 6.90237 24.7071 7.29289Z"/>
<path fill-rule="evenodd" clip-rule="evenodd" d="M7.29289 7.29289C7.68342 6.90237 8.31658 6.90237 8.70711 7.29289L24.7071 23.2929C25.0976 23.6834 25.0976 24.3166 24.7071 24.7071C24.3166 25.0976 23.6834 25.0976 23.2929 24.7071L7.29289 8.70711C6.90237 8.31658 6.90237 7.68342 7.29289 7.29289Z"/>
</symbol>
<symbol id="liveChat_icon" viewBox="0 0 24 24">
<path fill-rule="evenodd" clip-rule="evenodd" d="M18.75 18C19.1658 18 19.5629 18.1726 19.8466 18.4765L22.5 21.3195V7.5C22.5 6.67157 21.8284 6 21 6H8.25C7.42157 6 6.75 6.67157 6.75 7.5V16.5C6.75 17.3284 7.42157 18 8.25 18H18.75ZM18.75 19.5L22.7017 23.7617C23.1662 24.2594 24 23.9307 24 23.25V7.5C24 5.84315 22.6569 4.5 21 4.5H8.25C6.59315 4.5 5.25 5.84315 5.25 7.5V16.5C5.25 18.1569 6.59315 19.5 8.25 19.5H18.75Z"/>
<path fill-rule="evenodd" clip-rule="evenodd" d="M4.5 15H6.75V7.5C6.75 6.67157 7.42157 6 8.25 6H19.5V3C19.5 1.34315 18.1569 0 16.5 0H3C1.34315 0 0 1.34315 0 3V17.6893C0 18.3575 0.807857 18.6921 1.28033 18.2197L4.5 15ZM18 4.5V3C18 2.17157 17.3284 1.5 16.5 1.5H3C2.17157 1.5 1.5 2.17157 1.5 3V15.8787L3.43934 13.9393C3.72064 13.658 4.10218 13.5 4.5 13.5H5.25V7.5C5.25 5.84315 6.59315 4.5 8.25 4.5H18Z"/>
</symbol>
<symbol id="adding_icon" viewBox="0 0 12 13">
<path fill-rule="evenodd" clip-rule="evenodd" d="M6 2C3.51472 2 1.5 4.01472 1.5 6.5C1.5 8.98528 3.51472 11 6 11C8.48528 11 10.5 8.98528 10.5 6.5C10.5 4.01472 8.48528 2 6 2ZM0.5 6.5C0.5 3.46243 2.96243 1 6 1C9.03757 1 11.5 3.46243 11.5 6.5C11.5 9.53757 9.03757 12 6 12C2.96243 12 0.5 9.53757 0.5 6.5Z"/>
<path fill-rule="evenodd" clip-rule="evenodd" d="M6 4C6.27614 4 6.5 4.22386 6.5 4.5V8.5C6.5 8.77614 6.27614 9 6 9C5.72386 9 5.5 8.77614 5.5 8.5V4.5C5.5 4.22386 5.72386 4 6 4Z"/>
<path fill-rule="evenodd" clip-rule="evenodd" d="M3.5 6.5C3.5 6.22386 3.72386 6 4 6H8C8.27614 6 8.5 6.22386 8.5 6.5C8.5 6.77614 8.27614 7 8 7H4C3.72386 7 3.5 6.77614 3.5 6.5Z"/>
</symbol>
</defs></svg>




