<svg width="107" height="24" viewBox="0 0 107 24" fill="none" xmlns="http://www.w3.org/2000/svg">
<g clip-path="url(#clip0_1014_9122)">
<path fill-rule="evenodd" clip-rule="evenodd" d="M27.5327 0.115173H30.8649V19.6568H27.5327V0.115173Z" fill="#585858"/>
<path fill-rule="evenodd" clip-rule="evenodd" d="M14.528 7.17053C14.528 6.70809 14.2073 6.45633 13.8393 6.45633C13.473 6.45633 13.1441 6.70084 13.1441 7.17053V16.5821C13.1441 17.0511 13.4728 17.2963 13.8393 17.2963C14.2075 17.2963 14.528 17.0402 14.528 16.5821V13.4978H17.8569V16.3408C17.8569 18.6469 16.0273 19.8488 13.8238 19.8488C11.7164 19.8488 9.81445 18.6855 9.81445 16.3408V7.40989C9.81445 5.07013 11.7166 3.90347 13.8238 3.90347C15.9901 3.90347 17.8569 5.10637 17.8569 7.40989V9.95566H14.528V7.17053Z" fill="#585858"/>
<path fill-rule="evenodd" clip-rule="evenodd" d="M22 7.59431C22 7.12478 22.3278 6.88027 22.6943 6.88027C23.062 6.88027 23.3841 7.13348 23.3841 7.59431V19.6584H26.7161V6.73273C26.7161 4.62637 25.3389 3.90073 24.2878 3.90073C23.1135 3.90073 22.2885 4.74202 22.0608 5.16919H22.0069V0.115173H18.6748V19.6584H21.9999V7.59431H22Z" fill="#585858"/>
<path fill-rule="evenodd" clip-rule="evenodd" d="M36.3917 16.3009C36.3917 16.7606 36.0698 17.0154 35.7019 17.0154C35.3366 17.0154 35.0077 16.7704 35.0077 16.3009V4.08517H31.6772V17.0566C31.6772 18.7766 32.8739 19.849 34.1581 19.849C35.4593 19.849 36.1655 18.9141 36.3654 18.5717H36.4405L36.5001 19.6584H39.7223V4.08517H36.3919V16.3009H36.3917Z" fill="#585858"/>
<path fill-rule="evenodd" clip-rule="evenodd" d="M43.8654 19.6584H40.5347V4.08516H43.8336L43.8669 5.17144H43.9335C44.1779 4.69353 44.9705 3.90073 46.1716 3.90073C47.4154 3.90073 48.2151 4.85042 48.3859 5.40918H48.433C48.6816 4.84108 49.5536 3.90073 50.8154 3.90073C52.0901 3.90073 53.3115 4.7578 53.3115 6.87753V19.6584H49.9796V7.44016C49.9796 6.9695 49.6536 6.72451 49.2866 6.72451C48.9186 6.72451 48.5939 6.97724 48.5939 7.44016V19.6584H45.2466V7.4458C45.2466 6.97498 44.9147 6.73015 44.5484 6.73015C44.1804 6.73015 43.8652 6.98384 43.8652 7.4458V19.6584H43.8654Z" fill="#585858"/>
<path fill-rule="evenodd" clip-rule="evenodd" d="M59.6546 3.90073C58.5398 3.8996 57.7377 4.8356 57.5277 5.17692H57.4566V0.115173H54.125V19.6584H57.4193L57.4566 18.5717H57.5277C57.6943 18.9911 58.4092 19.8429 59.6311 19.8445C61.0415 19.8462 62.1883 18.6416 62.1883 16.8198V6.73273C62.1883 4.98089 60.9926 3.90073 59.6546 3.90073ZM58.8452 16.3062C58.8452 16.7676 58.5231 17.021 58.1536 17.021C57.7876 17.021 57.4582 16.7749 57.4582 16.3062V7.45031C57.4582 6.98062 57.7876 6.73611 58.1536 6.73611C58.5229 6.73611 58.8452 6.99045 58.8452 7.45031V16.3062Z" fill="#585858"/>
<path fill-rule="evenodd" clip-rule="evenodd" d="M66.3327 16.5896C66.3327 17.0592 66.6631 17.3043 67.0297 17.3043C67.3963 17.3043 67.7179 17.0511 67.7179 16.5896V13.4978H71.0478V16.3382C71.0478 18.6867 69.0981 19.849 67.0157 19.849C64.9067 19.849 62.9976 18.6867 62.9976 16.3382V7.41536C62.9976 5.07448 64.9038 3.90347 67.0129 3.90347C69.1774 3.90347 71.0477 5.1009 71.0477 7.41536V12.4473H66.3324V16.5896H66.3327ZM67.7181 10.0724V7.17327C67.7181 6.7126 67.3965 6.45923 67.0298 6.45923C66.6632 6.45923 66.3329 6.70245 66.3329 7.17327L66.3358 10.0724H67.7181Z" fill="#585858"/>
<path fill-rule="evenodd" clip-rule="evenodd" d="M75.8957 6.73273C75.5307 6.73273 75.1986 6.97724 75.1986 7.44838V19.6584H71.8647V4.08516H75.1318L75.1958 5.16918H75.2696C75.5841 4.73638 76.3883 3.90073 77.5013 3.90073C78.7915 3.90073 79.9175 4.93788 79.9175 6.58518V12.4309H76.5836V7.34497C76.5836 6.9724 76.2243 6.73273 75.8883 6.73273H75.8957Z" fill="#585858"/>
<path fill-rule="evenodd" clip-rule="evenodd" d="M92.9112 16.5896C92.9112 17.0592 93.2428 17.3043 93.6083 17.3043C93.9761 17.3043 94.297 17.0511 94.297 16.5896V13.4978H97.6274V16.3382C97.6274 18.6867 95.6739 19.849 93.5945 19.849C91.4853 19.849 89.5791 18.6867 89.5791 16.3382V7.41536C89.5791 5.07448 91.4826 3.90347 93.5916 3.90347C95.7555 3.90347 97.6274 5.1009 97.6274 7.41536V12.4473H92.9112V16.5896ZM94.297 10.0724V7.17327C94.297 6.7126 93.9759 6.45923 93.6083 6.45923C93.2428 6.45923 92.9112 6.70245 92.9112 7.17327L92.9141 10.0724H94.297Z" fill="#585858"/>
<path fill-rule="evenodd" clip-rule="evenodd" d="M102.465 6.73273C102.095 6.73273 101.766 6.97724 101.766 7.44838V19.6584H98.4316V4.08516H101.697L101.764 5.16918H101.836C102.151 4.73638 102.956 3.90073 104.07 3.90073C105.361 3.90073 106.487 4.93788 106.487 6.58518V12.4309H103.151V7.34497C103.151 6.9724 102.791 6.73273 102.456 6.73273H102.465Z" fill="#585858"/>
<path fill-rule="evenodd" clip-rule="evenodd" d="M85.4409 15.3305C85.4409 15.7902 85.1214 16.0436 84.7522 16.0436C84.3866 16.0436 84.0568 15.8002 84.0568 15.3305V7.45289C84.0568 6.98497 84.3866 6.74159 84.7522 6.74159C85.1214 6.74159 85.4409 6.9927 85.4409 7.45289V15.3305ZM85.4409 20.7991C85.4409 21.26 85.1196 21.5121 84.7522 21.5121C84.3866 21.5121 84.0568 21.2671 84.0568 20.7991V19.5362H80.7301V20.3945C80.7301 22.8288 82.4238 23.9119 84.7411 23.9119C87.04 23.9119 88.7741 22.8288 88.7741 20.3945V4.08516H85.4908L85.4409 5.17691H85.3603C85.1864 4.82014 84.4065 3.90073 83.164 3.90073C81.9624 3.90073 80.73 4.81579 80.73 6.50706V15.8079C80.73 17.5891 81.8838 18.629 83.1835 18.629C84.4189 18.629 85.138 17.8103 85.3424 17.486H85.4407V20.7991H85.4409Z" fill="#585858"/>
<path fill-rule="evenodd" clip-rule="evenodd" d="M3.82684 16.3382C3.82684 16.8089 4.15705 17.0539 4.52383 17.0539C4.89126 17.0539 5.21107 16.7989 5.21107 16.3382V14.4915C5.21107 13.0178 4.89272 12.4826 3.78881 11.4543C2.84789 10.5768 2.37305 10.1253 1.76511 9.55716C0.98735 8.82814 0.0901482 7.81289 0.0901482 5.91577V3.57488C0.0891732 1.00543 2.24645 0.0491333 4.51928 0.0491333C6.78495 0.0491333 8.92452 1.02637 8.92452 3.55668V6.57472H5.21091V3.6464C5.21091 3.18508 4.89012 2.93171 4.5222 2.93171C4.15559 2.93171 3.82684 3.17719 3.82684 3.6464V5.05241C3.82684 6.27029 4.21149 6.80586 5.23008 7.76989C5.63977 8.15856 6.56703 9.05268 7.28076 9.74256C8.55693 10.9817 8.99814 12.0994 8.99814 13.6365V16.2527C8.99814 18.9729 6.78918 19.9281 4.51928 19.9281C2.22013 19.9282 0.0766602 18.9729 0.0766602 16.3822V12.6346H3.82684V16.3382Z" fill="#585858"/>
</g>
<defs>
<clipPath id="clip0_1014_9122">
<rect width="106.605" height="24" fill="white"/>
</clipPath>
</defs>
</svg>
