<svg aria-hidden="true" style="position:absolute;width:0;height:0" xmlns="http://www.w3.org/2000/svg" overflow="hidden"><defs>
<symbol id="search_icon" viewBox="0 0 16 16">
<path fill-rule="evenodd" clip-rule="evenodd" d="M2 7.27777C2 4.36294 4.36294 2 7.27777 2C10.1926 2 12.5555 4.36294 12.5555 7.27777C12.5555 8.70633 11.988 10.0023 11.066 10.9526C11.0446 10.9681 11.0241 10.9855 11.0048 11.0048C10.9854 11.0241 10.968 11.0446 10.9526 11.066C10.0023 11.988 8.70633 12.5555 7.27777 12.5555C4.36294 12.5555 2 10.1926 2 7.27777ZM11.3492 12.0564C10.2531 12.9912 8.83134 13.5555 7.27777 13.5555C3.81065 13.5555 1 10.7449 1 7.27777C1 3.81065 3.81065 1 7.27777 1C10.7449 1 13.5555 3.81065 13.5555 7.27777C13.5555 8.83134 12.9912 10.2531 12.0564 11.3493L14.8535 14.1464C15.0488 14.3417 15.0488 14.6583 14.8535 14.8535C14.6583 15.0488 14.3417 15.0488 14.1464 14.8535L11.3492 12.0564Z"/>
</symbol>
<symbol id="filter_icon" viewBox="0 0 16 16">
<path fill-rule="evenodd" clip-rule="evenodd" d="M0.879944 1.78956C0.961873 1.61298 1.13884 1.5 1.3335 1.5H14.6668C14.8615 1.5 15.0385 1.61298 15.1204 1.78956C15.2023 1.96614 15.1743 2.17422 15.0486 2.32286L9.8335 8.48974V14C9.8335 14.1733 9.74378 14.3342 9.59637 14.4253C9.44896 14.5164 9.26489 14.5247 9.1099 14.4472L6.44323 13.1139C6.27384 13.0292 6.16684 12.8561 6.16684 12.6667V8.48974L0.951718 2.32286C0.826019 2.17422 0.798015 1.96614 0.879944 1.78956ZM2.41115 2.5L7.04862 7.9838C7.12495 8.07407 7.16684 8.18846 7.16684 8.30667V12.3577L8.8335 13.191V8.30667C8.8335 8.18846 8.87539 8.07407 8.95172 7.9838L13.5892 2.5H2.41115Z"/>
</symbol>
<symbol id="home_icon" viewBox="0 0 20 20">
<path fill-rule="evenodd" clip-rule="evenodd" d="M9.61629 1.17331C9.84198 0.997772 10.158 0.997772 10.3837 1.17331L17.8837 7.00665C18.036 7.12506 18.125 7.30712 18.125 7.49999V16.6667C18.125 17.2744 17.8836 17.8573 17.4538 18.2871C17.024 18.7169 16.4411 18.9583 15.8333 18.9583H4.16667C3.55888 18.9583 2.97598 18.7169 2.54621 18.2871C2.11644 17.8573 1.875 17.2744 1.875 16.6667V7.49999C1.875 7.30712 1.96405 7.12506 2.11629 7.00665L9.61629 1.17331ZM3.125 7.80567V16.6667C3.125 16.9429 3.23475 17.2079 3.4301 17.4032C3.62545 17.5986 3.8904 17.7083 4.16667 17.7083H15.8333C16.1096 17.7083 16.3746 17.5986 16.5699 17.4032C16.7653 17.2079 16.875 16.9429 16.875 16.6667V7.80567L10 2.45845L3.125 7.80567Z"/>
<path fill-rule="evenodd" clip-rule="evenodd" d="M6.875 10C6.875 9.65482 7.15482 9.375 7.5 9.375H12.5C12.8452 9.375 13.125 9.65482 13.125 10V18.3333C13.125 18.6785 12.8452 18.9583 12.5 18.9583C12.1548 18.9583 11.875 18.6785 11.875 18.3333V10.625H8.125V18.3333C8.125 18.6785 7.84518 18.9583 7.5 18.9583C7.15482 18.9583 6.875 18.6785 6.875 18.3333V10Z"/>
</symbol>
<symbol id="map_icon" viewBox="0 0 16 16">
<path fill-rule="evenodd" clip-rule="evenodd" d="M8 1.16666C6.54131 1.16666 5.14236 1.74612 4.11091 2.77757C3.07946 3.80902 2.5 5.20797 2.5 6.66666C2.5 8.79902 3.88287 10.8438 5.36298 12.4061C6.09281 13.1765 6.82433 13.8066 7.37396 14.2443C7.62883 14.4472 7.84371 14.6081 8 14.7217C8.15629 14.6081 8.37117 14.4472 8.62604 14.2443C9.17567 13.8066 9.90719 13.1765 10.637 12.4061C12.1171 10.8438 13.5 8.79902 13.5 6.66666C13.5 5.20797 12.9205 3.80902 11.8891 2.77757C10.8576 1.74612 9.45869 1.16666 8 1.16666ZM8 15.3333C7.72265 15.7493 7.72252 15.7493 7.72236 15.7492L7.72068 15.748L7.71653 15.7452L7.70186 15.7353C7.68928 15.7268 7.67119 15.7144 7.64793 15.6983C7.60143 15.6661 7.53429 15.6189 7.44944 15.5577C7.2798 15.4352 7.03912 15.2559 6.75104 15.0265C6.17567 14.5684 5.40719 13.9068 4.63702 13.0939C3.11713 11.4895 1.5 9.20096 1.5 6.66666C1.5 4.94275 2.18482 3.28945 3.40381 2.07046C4.62279 0.851476 6.27609 0.166656 8 0.166656C9.72391 0.166656 11.3772 0.851476 12.5962 2.07046C13.8152 3.28945 14.5 4.94275 14.5 6.66666C14.5 9.20096 12.8829 11.4895 11.363 13.0939C10.5928 13.9068 9.82433 14.5684 9.24896 15.0265C8.96088 15.2559 8.7202 15.4352 8.55056 15.5577C8.46571 15.6189 8.39857 15.6661 8.35207 15.6983C8.32881 15.7144 8.31072 15.7268 8.29814 15.7353L8.28347 15.7452L8.27932 15.748L8.27764 15.7492C8.27748 15.7493 8.27735 15.7493 8 15.3333ZM8 15.3333L8.27764 15.7492C8.10969 15.8611 7.89031 15.8611 7.72236 15.7492L8 15.3333Z"/>
<path fill-rule="evenodd" clip-rule="evenodd" d="M8 5.16666C7.17157 5.16666 6.5 5.83823 6.5 6.66666C6.5 7.49508 7.17157 8.16666 8 8.16666C8.82843 8.16666 9.5 7.49508 9.5 6.66666C9.5 5.83823 8.82843 5.16666 8 5.16666ZM5.5 6.66666C5.5 5.28594 6.61929 4.16666 8 4.16666C9.38071 4.16666 10.5 5.28594 10.5 6.66666C10.5 8.04737 9.38071 9.16666 8 9.16666C6.61929 9.16666 5.5 8.04737 5.5 6.66666Z"/>
</symbol>
<symbol id="equipment_icon" viewBox="0 0 16 16">
<path fill-rule="evenodd" clip-rule="evenodd" d="M7.8143 0.0357617C7.93351 -0.0119206 8.06649 -0.0119206 8.1857 0.0357617L15.6857 3.03576C15.8755 3.11169 16 3.29555 16 3.5V12.5C16 12.7045 15.8755 12.8883 15.6857 12.9642L8.1857 15.9642C8.06649 16.0119 7.93351 16.0119 7.8143 15.9642L0.314305 12.9642C0.124475 12.8883 0 12.7045 0 12.5V3.5C0 3.29555 0.124475 3.11169 0.314305 3.03576L7.8143 0.0357617ZM1 4.23852V12.1615L7.5 14.7615V6.83852L1 4.23852ZM15 12.1615L8.5 14.7615V6.83852L15 4.23852V12.1615ZM14.1537 3.5L8 5.96148L5.60282 5.00261L11.7196 2.54363C11.7267 2.54079 11.7336 2.53781 11.7405 2.5347L14.1537 3.5ZM10.3973 1.99743L8 1.03852L1.84629 3.5L4.25964 4.46534C4.26647 4.46223 4.27341 4.45926 4.28044 4.45643L10.3973 1.99743Z"/>
</symbol>
<symbol id="support_icon" viewBox="0 0 17 16">
<path fill-rule="evenodd" clip-rule="evenodd" d="M4.51757 3.15032C3.81719 3.97715 3.58423 4.97429 3.58423 5.62117V6.39703L3.58427 6.40862V9.55851C3.58427 10.4102 2.89383 11.1006 2.04213 11.1006C1.19044 11.1006 0.5 10.4102 0.5 9.55851V6.40862C0.5 5.55693 1.19044 4.86649 2.04213 4.86649C2.25763 4.86649 2.4628 4.91069 2.64908 4.99052C2.76373 4.22725 3.09172 3.31068 3.76647 2.5141C4.65695 1.46284 6.11262 0.666656 8.34188 0.666656C10.5711 0.666656 12.0268 1.46284 12.9173 2.5141C13.592 3.31069 13.92 4.22726 14.0347 4.99054C14.221 4.9107 14.4261 4.86649 14.6417 4.86649C15.4934 4.86649 16.1838 5.55693 16.1838 6.40862V9.55851C16.1838 10.4102 15.4934 11.1006 14.6417 11.1006C14.328 11.1006 14.0361 11.007 13.7926 10.8461C13.6757 11.1853 13.5117 11.5432 13.2818 11.8949C12.6669 12.8359 11.6205 13.6761 9.89032 14.0479C9.75438 14.7795 9.11284 15.3333 8.34194 15.3333C7.47212 15.3333 6.767 14.6282 6.767 13.7584C6.767 12.8886 7.47212 12.1834 8.34194 12.1834C8.96476 12.1834 9.50313 12.545 9.75867 13.0696C11.2173 12.7387 12.0115 12.0395 12.4578 11.3564C13.0962 10.3796 13.0995 9.32436 13.0995 9.03356V5.62117C13.0995 4.97429 12.8666 3.97715 12.1662 3.15032C11.4817 2.34226 10.3125 1.651 8.34188 1.651C6.37128 1.651 5.20204 2.34226 4.51757 3.15032ZM2.59989 6.40163C2.59614 6.09679 2.34786 5.85083 2.04213 5.85083C1.73407 5.85083 1.48434 6.10056 1.48434 6.40862V9.55851C1.48434 9.86658 1.73407 10.1163 2.04213 10.1163C2.35019 10.1163 2.59993 9.86657 2.59993 9.55851V9.03356H2.59989V6.40163ZM14.6417 5.85083C14.3336 5.85083 14.0839 6.10056 14.0839 6.40862V9.55851C14.0839 9.86658 14.3336 10.1163 14.6417 10.1163C14.9497 10.1163 15.1995 9.86657 15.1995 9.55851V6.40862C15.1995 6.10056 14.9497 5.85083 14.6417 5.85083Z"/>
</symbol>
<symbol id="dropdown_icon" viewBox="0 0 10 6">
<path fill-rule="evenodd" clip-rule="evenodd" d="M0.646447 0.646447C0.841709 0.451184 1.15829 0.451184 1.35355 0.646447L5 4.29289L8.64645 0.646447C8.84171 0.451184 9.15829 0.451184 9.35355 0.646447C9.54882 0.841709 9.54882 1.15829 9.35355 1.35355L5.35355 5.35355C5.15829 5.54882 4.84171 5.54882 4.64645 5.35355L0.646447 1.35355C0.451184 1.15829 0.451184 0.841709 0.646447 0.646447Z"/>
</symbol>
<symbol id="bell_icon" viewBox="0 0 10 12">
<path d="M5.04808 12C5.725 12 6.27885 11.4462 6.27885 10.7692H3.81731C3.81731 11.0957 3.94698 11.4087 4.17779 11.6395C4.40861 11.8703 4.72166 12 5.04808 12ZM8.74039 8.30769V5.23077C8.74039 3.34154 7.73115 1.76 5.97115 1.34154V0H4.125V1.34154C2.35885 1.76 1.35577 3.33538 1.35577 5.23077V8.30769L0.125 9.53846V10.1538H9.97115V9.53846L8.74039 8.30769Z"/>
</symbol>
<symbol id="showpass_icon" viewBox="0 0 24 24">
<path fill-rule="evenodd" clip-rule="evenodd" d="M11.9996 5.75C7.97554 5.75 4.88879 8.8359 3.32573 11.2114C2.99534 11.7135 2.98024 12.3442 3.283 12.8463C4.6929 15.1847 7.65214 18.25 11.9996 18.25C16.347 18.25 19.3062 15.1847 20.7161 12.8463C21.0189 12.3442 21.0038 11.7135 20.6734 11.2114C19.1103 8.8359 16.0236 5.75 11.9996 5.75ZM2.07267 10.3869C3.72465 7.87623 7.20407 4.25 11.9996 4.25C16.7951 4.25 20.2745 7.87623 21.9265 10.3869C22.5662 11.3591 22.6093 12.6116 22.0007 13.6209C20.468 16.1629 17.1078 19.75 11.9996 19.75C6.89138 19.75 3.53115 16.1629 1.99843 13.6209C1.38987 12.6116 1.43293 11.3591 2.07267 10.3869Z"/>
<path fill-rule="evenodd" clip-rule="evenodd" d="M12 14.25C13.2426 14.25 14.25 13.2426 14.25 12C14.25 10.7574 13.2426 9.75 12 9.75C10.7574 9.75 9.75 10.7574 9.75 12C9.75 13.2426 10.7574 14.25 12 14.25ZM12 15.75C14.0711 15.75 15.75 14.0711 15.75 12C15.75 9.92893 14.0711 8.25 12 8.25C9.92893 8.25 8.25 9.92893 8.25 12C8.25 14.0711 9.92893 15.75 12 15.75Z"/>
</symbol>
<symbol id="hidepass_icon" viewBox="0 0 24 24">
<path fill-rule="evenodd" clip-rule="evenodd" d="M23.0898 3.28667C23.3457 3.61237 23.2891 4.08386 22.9634 4.33977L1.9634 20.8398C1.63769 21.0957 1.1662 21.0391 0.910293 20.7134C0.654383 20.3877 0.710962 19.9162 1.03667 19.6603L22.0367 3.16029C22.3624 2.90438 22.8339 2.96096 23.0898 3.28667Z"/>
<path fill-rule="evenodd" clip-rule="evenodd" d="M3.32671 11.2114C4.88977 8.8359 7.97651 5.75 12.0005 5.75C14.2605 5.75 16.2248 6.72329 17.7896 7.99743L18.9947 7.05057C17.1884 5.50555 14.8223 4.25 12.0005 4.25C7.20505 4.25 3.72563 7.87623 2.07364 10.3869C1.43391 11.3591 1.39085 12.6116 1.99941 13.6209C2.75462 14.8734 3.95351 16.3796 5.58657 17.5855L6.81689 16.6188C5.21839 15.5349 4.03271 14.0881 3.28397 12.8463C2.98122 12.3442 2.99632 11.7135 3.32671 11.2114ZM8.22738 17.4182L6.92409 18.4422C8.35917 19.2285 10.0528 19.75 12.0005 19.75C17.1087 19.75 20.469 16.1629 22.0017 13.6209C22.6102 12.6116 22.5672 11.3591 21.9274 10.3869C21.4596 9.67583 20.8452 8.87532 20.0958 8.09303L18.9111 9.02387C19.6211 9.74998 20.2139 10.5115 20.6744 11.2114C21.0048 11.7135 21.0199 12.3442 20.7171 12.8463C19.3072 15.1847 16.348 18.25 12.0005 18.25C10.5961 18.25 9.33661 17.9301 8.22738 17.4182Z"/>
<path fill-rule="evenodd" clip-rule="evenodd" d="M15.1951 10.0358C14.535 8.96431 13.3509 8.25 12 8.25C9.92893 8.25 8.25 9.92893 8.25 12C8.25 13.0293 8.66468 13.9617 9.33608 14.6393L10.5287 13.7023C10.0517 13.2897 9.75 12.6801 9.75 12C9.75 10.7574 10.7574 9.75 12 9.75C12.8726 9.75 13.6292 10.2468 14.0024 10.9729L15.1951 10.0358ZM12.2817 14.2325C13.1183 14.128 13.8122 13.5642 14.1031 12.8015L15.7209 11.5303C15.7401 11.6842 15.75 11.8409 15.75 12C15.75 14.0711 14.0711 15.75 12 15.75C11.5289 15.75 11.0781 15.6631 10.6628 15.5046L12.2817 14.2325Z"/>
</symbol>
<symbol id="sticky_phone_icon" viewBox="0 0 19 24">
<path d="M4.8598 0.127714C5.51618 -0.0701856 6.22053 -0.0373077 6.85562 0.220874C7.4907 0.479056 8.0182 0.946967 8.35031 1.54671L8.4628 1.77021L9.45431 3.97671C9.75567 4.64644 9.85349 5.38998 9.73561 6.11487C9.61773 6.83975 9.28935 7.51399 8.7913 8.05371L8.5933 8.25171L7.02731 9.71121C6.74531 9.97821 6.9568 11.0117 7.97831 12.7787C8.89481 14.3687 9.64331 15.1112 10.0093 15.1517H10.0738L10.1533 15.1367L13.2283 14.1962C13.6416 14.0695 14.0826 14.0645 14.4986 14.1818C14.9147 14.2991 15.2881 14.5337 15.5743 14.8577L15.7123 15.0302L17.7463 17.8502C18.1454 18.4028 18.3445 19.0748 18.3107 19.7556C18.2769 20.4364 18.0122 21.0854 17.5603 21.5957L17.3773 21.7847L16.5628 22.5557C15.8327 23.2471 14.9195 23.7143 13.9317 23.9018C12.9438 24.0892 11.9229 23.9891 10.9903 23.6132C8.08781 22.4432 5.4508 19.7702 3.0553 15.6212C0.655304 11.4617 -0.342196 7.83621 0.103304 4.73121C0.238246 3.79244 0.62497 2.90776 1.22239 2.17116C1.81981 1.43455 2.60561 0.873534 3.4963 0.547714L3.7858 0.451714L4.8598 0.127714V0.127714Z"/>
</symbol>
<symbol id="sticky_msg_icon" viewBox="0 0 24 24">
<path d="M20 2H4C2.9 2 2 2.9 2 4V22L6 18H20C21.1 18 22 17.1 22 16V4C22 2.9 21.1 2 20 2Z"/>
</symbol>
<symbol id="sticky_time_icon" viewBox="0 0 22 22">
<path fill-rule="evenodd" clip-rule="evenodd" d="M7 5H4.11409C6.04466 2.79137 8.15921 2 11 2C15.9706 2 20 6.02944 20 11C20 15.9706 15.9706 20 11 20C6.02944 20 2 15.9706 2 11H0C0 17.0751 4.92487 22 11 22C17.0751 22 22 17.0751 22 11C22 4.92487 17.0751 0 11 0C7.78663 0 5.23708 0.910558 3 3.25645V0.991211H1V7H7V5ZM16 10H12V5H10V12H16V10Z"/>
</symbol>
<symbol id="tick_icon" viewBox="0 0 9 6">
<path fill-rule="evenodd" clip-rule="evenodd" d="M8.103 0.145894C8.29857 0.34085 8.29906 0.657432 8.10411 0.853L3.11973 5.853C3.02592 5.94711 2.8985 6 2.76562 6C2.63275 6 2.50533 5.94711 2.41152 5.853L0.145894 3.58027C-0.0490626 3.38471 -0.0485671 3.06812 0.147 2.87317C0.342568 2.67821 0.65915 2.67871 0.854106 2.87427L2.76562 4.79178L7.39589 0.147C7.59085 -0.0485671 7.90743 -0.0490626 8.103 0.145894Z"/>
</symbol>
<symbol id="cross_icon" viewBox="0 0 32 32">
<path fill-rule="evenodd" clip-rule="evenodd" d="M24.7071 7.29289C25.0976 7.68342 25.0976 8.31658 24.7071 8.70711L8.70711 24.7071C8.31658 25.0976 7.68342 25.0976 7.29289 24.7071C6.90237 24.3166 6.90237 23.6834 7.29289 23.2929L23.2929 7.29289C23.6834 6.90237 24.3166 6.90237 24.7071 7.29289Z"/>
<path fill-rule="evenodd" clip-rule="evenodd" d="M7.29289 7.29289C7.68342 6.90237 8.31658 6.90237 8.70711 7.29289L24.7071 23.2929C25.0976 23.6834 25.0976 24.3166 24.7071 24.7071C24.3166 25.0976 23.6834 25.0976 23.2929 24.7071L7.29289 8.70711C6.90237 8.31658 6.90237 7.68342 7.29289 7.29289Z"/>
</symbol>
<symbol id="liveChat_icon" viewBox="0 0 24 24">
<path fill-rule="evenodd" clip-rule="evenodd" d="M18.75 18C19.1658 18 19.5629 18.1726 19.8466 18.4765L22.5 21.3195V7.5C22.5 6.67157 21.8284 6 21 6H8.25C7.42157 6 6.75 6.67157 6.75 7.5V16.5C6.75 17.3284 7.42157 18 8.25 18H18.75ZM18.75 19.5L22.7017 23.7617C23.1662 24.2594 24 23.9307 24 23.25V7.5C24 5.84315 22.6569 4.5 21 4.5H8.25C6.59315 4.5 5.25 5.84315 5.25 7.5V16.5C5.25 18.1569 6.59315 19.5 8.25 19.5H18.75Z"/>
<path fill-rule="evenodd" clip-rule="evenodd" d="M4.5 15H6.75V7.5C6.75 6.67157 7.42157 6 8.25 6H19.5V3C19.5 1.34315 18.1569 0 16.5 0H3C1.34315 0 0 1.34315 0 3V17.6893C0 18.3575 0.807857 18.6921 1.28033 18.2197L4.5 15ZM18 4.5V3C18 2.17157 17.3284 1.5 16.5 1.5H3C2.17157 1.5 1.5 2.17157 1.5 3V15.8787L3.43934 13.9393C3.72064 13.658 4.10218 13.5 4.5 13.5H5.25V7.5C5.25 5.84315 6.59315 4.5 8.25 4.5H18Z"/>
</symbol>
<symbol id="adding_icon" viewBox="0 0 12 13">
<path fill-rule="evenodd" clip-rule="evenodd" d="M6 2C3.51472 2 1.5 4.01472 1.5 6.5C1.5 8.98528 3.51472 11 6 11C8.48528 11 10.5 8.98528 10.5 6.5C10.5 4.01472 8.48528 2 6 2ZM0.5 6.5C0.5 3.46243 2.96243 1 6 1C9.03757 1 11.5 3.46243 11.5 6.5C11.5 9.53757 9.03757 12 6 12C2.96243 12 0.5 9.53757 0.5 6.5Z"/>
<path fill-rule="evenodd" clip-rule="evenodd" d="M6 4C6.27614 4 6.5 4.22386 6.5 4.5V8.5C6.5 8.77614 6.27614 9 6 9C5.72386 9 5.5 8.77614 5.5 8.5V4.5C5.5 4.22386 5.72386 4 6 4Z"/>
<path fill-rule="evenodd" clip-rule="evenodd" d="M3.5 6.5C3.5 6.22386 3.72386 6 4 6H8C8.27614 6 8.5 6.22386 8.5 6.5C8.5 6.77614 8.27614 7 8 7H4C3.72386 7 3.5 6.77614 3.5 6.5Z"/>
</symbol>
<symbol id="threedot_icon" viewBox="0 0 4 18">
<circle cx="2" cy="2.25" r="1.875"/>
<circle cx="2" cy="9" r="1.875"/>
<circle cx="2" cy="15.75" r="1.875"/></symbol>
<symbol id="type_icon" viewBox="0 0 24 24">
<path fill-rule="evenodd" clip-rule="evenodd" d="M22.4 12C22.4 14.5833 21.4581 16.9466 19.899 18.7653L16.7717 15.6379C17.5423 14.6287 18 13.3678 18 12C18 10.631 17.5415 9.36904 16.7697 8.35938L19.8969 5.23217C21.4572 7.05117 22.4 9.41549 22.4 12ZM18.7653 4.10098C16.9467 2.54189 14.5833 1.6 12 1.6C9.41669 1.6 7.05337 2.54188 5.23472 4.10096L8.36206 7.2283C9.37127 6.4577 10.6322 6 12 6C13.3678 6 14.6288 6.45771 15.638 7.22832L18.7653 4.10098ZM1.6 12C1.6 9.41547 2.54277 7.05114 4.10316 5.23215L7.23037 8.35935C6.45852 9.36901 6 10.631 6 12C6 13.3678 6.45771 14.6288 7.22832 15.638L4.10099 18.7653C2.54189 16.9467 1.6 14.5833 1.6 12ZM4.09792 21.0311C6.20888 22.8797 8.97361 24 12 24C15.0264 24 17.7911 22.8797 19.9021 21.0311L21.1815 22.3104L22.3128 21.1791L21.0333 19.8996C22.8806 17.7889 24 15.0252 24 12C24 8.9736 22.8797 6.20887 21.0311 4.09792L22.3128 2.81621L21.1815 1.68484L19.8996 2.9667C17.789 1.11945 15.0252 0 12 0C8.97481 0 6.21107 1.11944 4.10044 2.96668L2.8186 1.68484L1.68723 2.81621L2.96891 4.09789C1.12034 6.20885 0 8.97359 0 12C0 15.0252 1.11945 17.789 2.96671 19.8996L1.68723 21.1791L2.8186 22.3104L4.09792 21.0311ZM5.23218 19.8969L8.35938 16.7697C9.36904 17.5415 10.631 18 12 18C13.369 18 14.631 17.5415 15.6407 16.7696L18.7679 19.8968C16.9489 21.4572 14.5845 22.4 12 22.4C9.41549 22.4 7.05117 21.4572 5.23218 19.8969ZM16.5 12C16.5 14.4853 14.4853 16.5 12 16.5C9.51472 16.5 7.5 14.4853 7.5 12C7.5 9.51472 9.51472 7.5 12 7.5C14.4853 7.5 16.5 9.51472 16.5 12Z"/>
</symbol>
<symbol id="wells_icon" viewBox="0 0 24 24">
<path d="M17.1293 4.6875V6.375H21.6477V21.5625H2.44441V6.375H6.96284V4.6875H0.75V23.25H23.3422V4.6875H17.1293ZM10.8035 2.4375H13.2886V11.55H10.8035V2.4375ZM11.1424 19.9312H12.8368V13.2375H14.8701V0.75H9.1091V13.2375H11.1424V19.9312Z"/>
</symbol>
<symbol id="facility_icon" viewBox="0 0 24 24">
<path d="M7.24462 6.9375H3.25537L2.52412 21.5625H7.97587L7.62937 14.628L7.46625 11.388L7.24575 6.9375H7.24462ZM3.33975 5.25H7.16025L7.01962 2.4375H3.48038L3.33975 5.25ZM9.31462 14.5436L9.66788 21.5625H14.8125V9.2415L9.2055 12.3533L9.31462 14.5436ZM9.11213 10.4756L16.5 6.375V10.1786L23.25 6.375V23.25H0.75L1.875 0.75H8.625L9.111 10.4756H9.11213ZM16.5 12.1159V21.5625H21.5625V9.26287L16.5 12.1159Z"/>
</symbol>
<symbol id="repair_icon" viewBox="0 0 32 32">
<path fill-rule="evenodd" clip-rule="evenodd" d="M23.1456 2.51731C22.1107 2.29901 21.0376 2.282 19.986 2.47361C18.3475 2.77215 16.8389 3.56295 15.6612 4.74062C14.4835 5.91829 13.6927 7.42691 13.3942 9.06541C13.0956 10.7039 13.3035 12.3945 13.9902 13.9119C14.191 14.3557 14.0959 14.8775 13.7514 15.222L2.96771 26.0058C2.56637 26.4071 2.3409 26.9514 2.3409 27.519C2.3409 28.0866 2.56637 28.6309 2.96771 29.0323C3.36905 29.4336 3.91339 29.6591 4.48098 29.6591C5.04856 29.6591 5.5929 29.4336 5.99424 29.0323L16.778 18.2486C17.1225 17.9041 17.6443 17.809 18.0881 18.0098C19.6055 18.6965 21.2961 18.9044 22.9346 18.6058C24.5731 18.3073 26.0817 17.5165 27.2594 16.3388C28.4371 15.1611 29.2279 13.6525 29.5264 12.014C29.718 10.9624 29.701 9.88933 29.4827 8.85437L24.9327 13.4044C24.4221 13.9048 23.7357 14.1851 23.0209 14.1851C22.306 14.1851 21.6197 13.9048 21.1091 13.4044L21.1008 13.3962L18.5956 10.8909C18.0952 10.3804 17.8149 9.69398 17.8149 8.97912C17.8149 8.26426 18.0952 7.5779 18.5956 7.06739L18.6038 7.05903L23.1456 2.51731ZM19.5664 0.170624C21.673 -0.213213 23.8466 0.0540863 25.7975 0.9369C26.1476 1.09531 26.3976 1.41544 26.4664 1.79344C26.5353 2.17145 26.4143 2.55919 26.1426 2.83088L20.2647 8.70882C20.1949 8.78145 20.1558 8.8783 20.1558 8.97912C20.1558 9.07995 20.1949 9.17681 20.2647 9.24944L22.7505 11.7353C22.8232 11.8051 22.92 11.8442 23.0209 11.8442C23.1217 11.8442 23.2186 11.8051 23.2912 11.7353L29.1691 5.85741C29.4408 5.58572 29.8285 5.46468 30.2066 5.53355C30.5846 5.60243 30.9047 5.85244 31.0631 6.2025C31.9459 8.15338 32.2132 10.327 31.8294 12.4336C31.4455 14.5403 30.4288 16.4799 28.9146 17.9941C27.4005 19.5082 25.4608 20.525 23.3542 20.9088C21.518 21.2434 19.631 21.0833 17.885 20.4521L7.6495 30.6875C6.80916 31.5279 5.66941 32 4.48098 32C3.29255 32 2.15279 31.5279 1.31245 30.6875C0.472101 29.8472 0 28.7074 0 27.519C0 26.3306 0.472102 25.1908 1.31245 24.3505L11.5479 14.115C10.9167 12.369 10.7566 10.482 11.0912 8.6458C11.475 6.53915 12.4918 4.59951 14.0059 3.08535C15.5201 1.5712 17.4597 0.55446 19.5664 0.170624Z" fill="#2979FF"/>
</symbol>
<symbol id="restart_icon" viewBox="0 0 30 30">
<path fill-rule="evenodd" clip-rule="evenodd" d="M5.81749 6.9987H9.66536V9.66536H1.66536V1.65365H4.33203V4.67396C7.3148 1.54611 10.7142 0.332031 14.9987 0.332031C23.0989 0.332031 29.6654 6.89852 29.6654 14.9987C29.6654 23.0989 23.0989 29.6654 14.9987 29.6654C6.89852 29.6654 0.332031 23.0989 0.332031 14.9987H2.9987C2.9987 21.6261 8.37128 26.9987 14.9987 26.9987C21.6261 26.9987 26.9987 21.6261 26.9987 14.9987C26.9987 8.37128 21.6261 2.9987 14.9987 2.9987C11.211 2.9987 8.39157 4.05386 5.81749 6.9987Z" fill="#2979FF"/>
</symbol>
<symbol id="maintenance_pkg_icon" viewBox="0 0 32 32">
<path d="M15.0425 1.4012L15.0425 1.40121L15.0461 1.3976C15.1708 1.27168 15.3194 1.17168 15.4831 1.10342C15.6468 1.03516 15.8225 1 16 1C16.1775 1 16.3532 1.03516 16.5169 1.10342C16.6806 1.17168 16.8292 1.27168 16.9539 1.39761L16.9575 1.4012L21.1794 5.61987C21.1802 5.62063 21.1809 5.62138 21.1816 5.62213C21.433 5.87819 21.5737 6.2224 21.5737 6.58082C21.5737 6.93919 21.433 7.28338 21.1817 7.53942C21.1809 7.5402 21.1802 7.54098 21.1794 7.54176L16.9575 11.7604L16.9539 11.764C16.8292 11.8899 16.6806 11.99 16.5169 12.0582C16.3532 12.1265 16.1775 12.1616 16 12.1616C15.8225 12.1616 15.6468 12.1265 15.4831 12.0582C15.3194 11.99 15.1708 11.89 15.0461 11.764L15.0425 11.7604L10.8183 7.53947C10.567 7.28342 10.4263 6.93922 10.4263 6.58082C10.4263 6.22242 10.567 5.87823 10.8183 5.62218L15.0425 1.4012ZM7.52758 10.8168L7.53116 10.8204L11.7553 15.0414C12.0066 15.2974 12.1473 15.6416 12.1473 16C12.1473 16.3584 12.0066 16.7026 11.7553 16.9586C11.7546 16.9594 11.7538 16.9602 11.7531 16.9609L7.53115 21.1796L7.52758 21.1832C7.40284 21.3091 7.25431 21.4091 7.09057 21.4774C6.92682 21.5457 6.75113 21.5808 6.57366 21.5808C6.39619 21.5808 6.2205 21.5457 6.05676 21.4774C5.89301 21.4091 5.74449 21.3091 5.61976 21.1832L5.61616 21.1796L1.39425 16.9609C1.39352 16.9602 1.3928 16.9595 1.39208 16.9587C1.14072 16.7027 1 16.3584 1 16C1 15.6416 1.14069 15.2974 1.392 15.0413L5.61616 10.8204L5.61617 10.8204L5.61975 10.8168C5.74449 10.6909 5.89301 10.5909 6.05676 10.5226C6.2205 10.4543 6.39619 10.4192 6.57366 10.4192C6.75113 10.4192 6.92682 10.4543 7.09056 10.5226C7.25431 10.5909 7.40284 10.6909 7.52758 10.8168ZM26.3802 10.8168L26.3838 10.8204L30.6058 15.0391C30.6065 15.0398 30.6072 15.0406 30.608 15.0413C30.8593 15.2974 31 15.6416 31 16C31 16.3584 30.8593 16.7026 30.608 16.9587C30.6072 16.9594 30.6065 16.9602 30.6058 16.9609L26.3838 21.1796L26.3803 21.1832C26.2555 21.3091 26.107 21.4091 25.9432 21.4774L26.328 22.4004L25.9432 21.4774C25.7795 21.5457 25.6038 21.5808 25.4263 21.5808C25.2489 21.5808 25.0732 21.5457 24.9094 21.4774C24.7457 21.4091 24.5972 21.3091 24.4724 21.1832L24.4688 21.1796L20.2469 16.9609C20.2462 16.9602 20.2454 16.9594 20.2447 16.9587C19.9934 16.7026 19.8527 16.3584 19.8527 16C19.8527 15.6416 19.9934 15.2974 20.2447 15.0413C20.2454 15.0406 20.2462 15.0398 20.2469 15.0391L24.4688 10.8204L24.4724 10.8168C24.5972 10.6909 24.7457 10.5909 24.9094 10.5226C25.0732 10.4543 25.2489 10.4192 25.4263 10.4192C25.6038 10.4192 25.7795 10.4543 25.9432 10.5226C26.107 10.5909 26.2555 10.6909 26.3802 10.8168ZM16.9539 20.236L16.9575 20.2396L21.1794 24.4582C21.1802 24.459 21.1809 24.4598 21.1816 24.4605C21.433 24.7166 21.5737 25.0608 21.5737 25.4192C21.5737 25.7776 21.433 26.1218 21.1816 26.3779C21.1809 26.3786 21.1802 26.3794 21.1794 26.3801L16.9575 30.5988L16.9539 30.6024C16.8292 30.7283 16.6806 30.8283 16.5169 30.8966C16.3532 30.9648 16.1775 31 16 31C15.8225 31 15.6468 30.9648 15.4831 30.8966C15.3194 30.8283 15.1708 30.7283 15.0461 30.6024L15.0425 30.5988L10.8206 26.3801C10.8199 26.3794 10.8191 26.3787 10.8184 26.3779C10.5671 26.1219 10.4263 25.7776 10.4263 25.4192C10.4263 25.0607 10.5671 24.7165 10.8184 24.4605C10.8191 24.4597 10.8199 24.459 10.8206 24.4582L15.0425 20.2396L15.0461 20.236C15.1708 20.1101 15.3194 20.01 15.4831 19.9418C15.6468 19.8735 15.8225 19.8384 16 19.8384C16.1775 19.8384 16.3532 19.8735 16.5169 19.9418C16.6806 20.01 16.8292 20.1101 16.9539 20.236Z" stroke="#2979FF" stroke-width="2"/>
</symbol>
<symbol id="routine_checkup_icon" viewBox="0 0 32 32">
<path fill-rule="evenodd" clip-rule="evenodd" d="M7.9987 6.33203C7.55667 6.33203 7.13275 6.50763 6.82019 6.82019C6.50763 7.13275 6.33203 7.55667 6.33203 7.9987V26.6654C6.33203 27.1074 6.50763 27.5313 6.82019 27.8439C7.13275 28.1564 7.55667 28.332 7.9987 28.332H23.9987C24.4407 28.332 24.8646 28.1564 25.1772 27.8439C25.4898 27.5313 25.6654 27.1074 25.6654 26.6654V7.9987C25.6654 7.55667 25.4898 7.13275 25.1772 6.82019C24.8646 6.50763 24.4407 6.33203 23.9987 6.33203H21.332C20.7797 6.33203 20.332 5.88432 20.332 5.33203C20.332 4.77975 20.7797 4.33203 21.332 4.33203H23.9987C24.9712 4.33203 25.9038 4.71834 26.5914 5.40597C27.2791 6.09361 27.6654 7.02624 27.6654 7.9987V26.6654C27.6654 27.6378 27.2791 28.5705 26.5914 29.2581C25.9038 29.9457 24.9712 30.332 23.9987 30.332H7.9987C7.02624 30.332 6.09361 29.9457 5.40597 29.2581C4.71834 28.5705 4.33203 27.6378 4.33203 26.6654V7.9987C4.33203 7.02624 4.71834 6.09361 5.40597 5.40597C6.09361 4.71834 7.02624 4.33203 7.9987 4.33203H10.6654C11.2176 4.33203 11.6654 4.77975 11.6654 5.33203C11.6654 5.88432 11.2176 6.33203 10.6654 6.33203H7.9987Z" fill="#2979FF"/>
<path fill-rule="evenodd" clip-rule="evenodd" d="M12.0013 3.66797C11.8172 3.66797 11.668 3.81721 11.668 4.0013V6.66797C11.668 6.85206 11.8172 7.0013 12.0013 7.0013H20.0013C20.1854 7.0013 20.3346 6.85206 20.3346 6.66797V4.0013C20.3346 3.81721 20.1854 3.66797 20.0013 3.66797H12.0013ZM9.66797 4.0013C9.66797 2.71264 10.7126 1.66797 12.0013 1.66797H20.0013C21.29 1.66797 22.3346 2.71264 22.3346 4.0013V6.66797C22.3346 7.95663 21.29 9.0013 20.0013 9.0013H12.0013C10.7126 9.0013 9.66797 7.95663 9.66797 6.66797V4.0013Z" fill="#2979FF"/>
<path fill-rule="evenodd" clip-rule="evenodd" d="M20.6644 14.2526C21.0772 14.6195 21.1143 15.2516 20.7474 15.6644L15.4141 21.6644C15.2243 21.8779 14.9523 22 14.6667 22C14.381 22 14.109 21.8779 13.9193 21.6644L11.2526 18.6644C10.8857 18.2516 10.9229 17.6195 11.3356 17.2526C11.7484 16.8857 12.3805 16.9229 12.7474 17.3356L14.6667 19.4948L19.2526 14.3356C19.6195 13.9229 20.2516 13.8857 20.6644 14.2526Z" fill="#2979FF"/>
</symbol>
<symbol id="installation_icon" viewBox="0 0 32 32">
<path fill-rule="evenodd" clip-rule="evenodd" d="M6.23304 17.6563C6.47262 18.1539 6.26345 18.7515 5.76584 18.9911C3.36393 20.1475 2.33203 21.5059 2.33203 22.6658C2.33203 23.8734 3.4546 25.2935 6.0416 26.4694C8.53833 27.6043 12.0578 28.3324 15.9987 28.3324C19.9396 28.3324 23.4591 27.6043 25.9558 26.4694C28.5428 25.2935 29.6654 23.8734 29.6654 22.6658C29.6654 21.5059 28.6335 20.1475 26.2316 18.9911C25.7339 18.7515 25.5248 18.1539 25.7644 17.6563C26.0039 17.1587 26.6016 16.9495 27.0992 17.1891C29.6569 18.4205 31.6654 20.2825 31.6654 22.6658C31.6654 25.14 29.5047 27.0532 26.7834 28.2902C23.9718 29.5682 20.1579 30.3324 15.9987 30.3324C11.8395 30.3324 8.02556 29.5682 5.214 28.2902C2.4927 27.0532 0.332031 25.14 0.332031 22.6658C0.332031 20.2825 2.34054 18.4205 4.89822 17.1891C5.39583 16.9495 5.99345 17.1587 6.23304 17.6563Z" fill="#2979FF"/>
<path fill-rule="evenodd" clip-rule="evenodd" d="M16.0013 1.66797C16.5536 1.66797 17.0013 2.11568 17.0013 2.66797V18.9204L20.6275 15.2942C21.0181 14.9037 21.6512 14.9037 22.0417 15.2942C22.4323 15.6847 22.4323 16.3179 22.0417 16.7084L16.7084 22.0417C16.3179 22.4323 15.6847 22.4323 15.2942 22.0417L9.96086 16.7084C9.57034 16.3179 9.57034 15.6847 9.96086 15.2942C10.3514 14.9037 10.9846 14.9037 11.3751 15.2942L15.0013 18.9204V2.66797C15.0013 2.11568 15.449 1.66797 16.0013 1.66797Z" fill="#2979FF"/>
</symbol>
<symbol id="design_proposals_icon" viewBox="0 0 32 32">
<path fill-rule="evenodd" clip-rule="evenodd" d="M7.9987 6.33203C7.55667 6.33203 7.13275 6.50763 6.82019 6.82019C6.50763 7.13275 6.33203 7.55667 6.33203 7.9987V26.6654C6.33203 27.1074 6.50763 27.5313 6.82019 27.8439C7.13275 28.1564 7.55667 28.332 7.9987 28.332H23.9987C24.4407 28.332 24.8646 28.1564 25.1772 27.8439C25.4898 27.5313 25.6654 27.1074 25.6654 26.6654V7.9987C25.6654 7.55667 25.4898 7.13275 25.1772 6.82019C24.8646 6.50763 24.4407 6.33203 23.9987 6.33203H21.332C20.7797 6.33203 20.332 5.88432 20.332 5.33203C20.332 4.77975 20.7797 4.33203 21.332 4.33203H23.9987C24.9712 4.33203 25.9038 4.71834 26.5914 5.40597C27.2791 6.09361 27.6654 7.02624 27.6654 7.9987V26.6654C27.6654 27.6378 27.2791 28.5705 26.5914 29.2581C25.9038 29.9457 24.9712 30.332 23.9987 30.332H7.9987C7.02624 30.332 6.09361 29.9457 5.40597 29.2581C4.71834 28.5705 4.33203 27.6378 4.33203 26.6654V7.9987C4.33203 7.02624 4.71834 6.09361 5.40597 5.40597C6.09361 4.71834 7.02624 4.33203 7.9987 4.33203H10.6654C11.2176 4.33203 11.6654 4.77975 11.6654 5.33203C11.6654 5.88432 11.2176 6.33203 10.6654 6.33203H7.9987Z" fill="#2979FF"/>
<path fill-rule="evenodd" clip-rule="evenodd" d="M11.9974 3.66797C11.8133 3.66797 11.6641 3.81721 11.6641 4.0013V6.66797C11.6641 6.85206 11.8133 7.0013 11.9974 7.0013H19.9974C20.1815 7.0013 20.3307 6.85206 20.3307 6.66797V4.0013C20.3307 3.81721 20.1815 3.66797 19.9974 3.66797H11.9974ZM9.66406 4.0013C9.66406 2.71264 10.7087 1.66797 11.9974 1.66797H19.9974C21.2861 1.66797 22.3307 2.71264 22.3307 4.0013V6.66797C22.3307 7.95663 21.2861 9.0013 19.9974 9.0013H11.9974C10.7087 9.0013 9.66406 7.95663 9.66406 6.66797V4.0013Z" fill="#2979FF"/>
<path fill-rule="evenodd" clip-rule="evenodd" d="M17.828 11.9298C18.609 11.1488 19.8754 11.1488 20.6564 11.9298L22.0706 13.3441C22.8517 14.1251 22.8517 15.3914 22.0706 16.1725L14.3235 23.9196L11.689 24.8725C10.0949 25.4491 8.55138 23.9055 9.12794 22.3115L10.0809 19.677L17.828 11.9298ZM20.6564 14.7583L19.2422 13.3441L11.8101 20.7762L11.0087 22.9918L13.2243 22.1904L20.6564 14.7583Z" fill="#2979FF"/>
</symbol>
<symbol id="pulls_icon" viewBox="0 0 32 32">
<path fill-rule="evenodd" clip-rule="evenodd" d="M29.8667 16C29.8667 19.4444 28.6108 22.5955 26.5321 25.0204L22.3623 20.8506C23.3897 19.505 24 17.8238 24 16C24 14.1746 23.3887 12.4921 22.3595 11.1458L26.5291 6.97623C28.6097 9.40156 29.8667 12.554 29.8667 16ZM25.0204 5.46797C22.5955 3.38918 19.4444 2.13333 16 2.13333C12.5556 2.13333 9.4045 3.38917 6.97962 5.46794L11.1494 9.63773C12.495 8.61027 14.1762 8 16 8C17.8238 8 19.505 8.61028 20.8506 9.63776L25.0204 5.46797ZM2.13333 16C2.13333 12.554 3.39035 9.40153 5.47088 6.97619L9.64049 11.1458C8.61136 12.492 8 14.1746 8 16C8 17.8238 8.61028 19.505 9.63776 20.8506L5.46798 25.0204C3.38919 22.5955 2.13333 19.4444 2.13333 16ZM5.4639 28.0415C8.27851 30.5062 11.9648 32 16 32C20.0352 32 23.7215 30.5062 26.5361 28.0415L28.2419 29.7472L29.7504 28.2388L28.0444 26.5327C30.5074 23.7186 32 20.0336 32 16C32 11.9648 30.5062 8.2785 28.0415 5.46389L29.7504 3.75494L28.2419 2.24645L26.5328 3.9556C23.7186 1.4926 20.0336 0 16 0C11.9664 0 8.28143 1.49259 5.46725 3.95557L3.75813 2.24645L2.24963 3.75494L3.95855 5.46386C1.49379 8.27847 0 11.9648 0 16C0 20.0336 1.4926 23.7186 3.95561 26.5328L2.24963 28.2388L3.75813 29.7473L5.4639 28.0415ZM6.97624 26.5292L11.1458 22.3595C12.4921 23.3887 14.1746 24 16 24C17.8254 24 19.508 23.3886 20.8542 22.3595L25.0238 26.5291C22.5985 28.6096 19.446 29.8667 16 29.8667C12.554 29.8667 9.40156 28.6097 6.97624 26.5292ZM22 16C22 19.3137 19.3137 22 16 22C12.6863 22 10 19.3137 10 16C10 12.6863 12.6863 10 16 10C19.3137 10 22 12.6863 22 16Z" fill="#2979FF"/>
</symbol>
<symbol id="tear_down_icon" viewBox="0 0 32 32">
<path fill-rule="evenodd" clip-rule="evenodd" d="M9.19725 11.5434C9.44955 12.0347 9.25581 12.6375 8.76453 12.8898C7.40038 13.5903 7 14.2867 7 14.7293C7 14.9796 7.11452 15.3025 7.49638 15.6881C7.88239 16.0779 8.49077 16.4748 9.3217 16.8297C10.9799 17.5379 13.3404 18.0002 16 18.0002C18.6596 18.0002 21.0201 17.5379 22.6783 16.8297C23.5092 16.4748 24.1176 16.0779 24.5036 15.6881C24.8855 15.3025 25 14.9796 25 14.7293C25 14.2867 24.5996 13.5903 23.2355 12.8898C22.7442 12.6375 22.5505 12.0347 22.8028 11.5434C23.0551 11.0521 23.6579 10.8584 24.1491 11.1107C25.6671 11.8902 27 13.0965 27 14.7293C27 15.6584 26.5549 16.4591 25.9247 17.0954C25.2986 17.7276 24.4425 18.2509 23.4638 18.6689C21.5028 19.5065 18.8632 20.0002 16 20.0002C13.1368 20.0002 10.4972 19.5065 8.53617 18.6689C7.55746 18.2509 6.70136 17.7276 6.07532 17.0954C5.44512 16.4591 5 15.6584 5 14.7293C5 13.0965 6.33291 11.8902 7.85086 11.1107C8.34215 10.8584 8.94494 11.0521 9.19725 11.5434Z" fill="#2979FF"/>
<path fill-rule="evenodd" clip-rule="evenodd" d="M15.2929 1.29289C15.6834 0.902369 16.3166 0.902369 16.7071 1.29289L21.7071 6.29289C22.0976 6.68342 22.0976 7.31658 21.7071 7.70711C21.3166 8.09763 20.6834 8.09763 20.2929 7.70711L17 4.41421V14C17 14.5523 16.5523 15 16 15C15.4477 15 15 14.5523 15 14V4.41421L11.7071 7.70711C11.3166 8.09763 10.6834 8.09763 10.2929 7.70711C9.90237 7.31658 9.90237 6.68342 10.2929 6.29289L15.2929 1.29289Z" fill="#2979FF"/>
<path fill-rule="evenodd" clip-rule="evenodd" d="M16.7071 30.7071C16.3166 31.0976 15.6834 31.0976 15.2929 30.7071L10.2929 25.7071C9.90237 25.3166 9.90237 24.6834 10.2929 24.2929C10.6834 23.9024 11.3166 23.9024 11.7071 24.2929L15 27.5858L15 23C15 22.4477 15.4477 22 16 22C16.5523 22 17 22.4477 17 23L17 27.5858L20.2929 24.2929C20.6834 23.9024 21.3166 23.9024 21.7071 24.2929C22.0976 24.6834 22.0976 25.3166 21.7071 25.7071L16.7071 30.7071Z" fill="#2979FF"/>
</symbol>
<symbol id="cable_service_icon" viewBox="0 0 25 30">
<path fill-rule="evenodd" clip-rule="evenodd" d="M0.875 1C0.875 0.447715 1.30406 0 1.83333 0H4.70833H21H23.875C24.4043 0 24.8333 0.447715 24.8333 1C24.8333 1.55228 24.4043 2 23.875 2H21V28H23.875C24.4043 28 24.8333 28.4477 24.8333 29C24.8333 29.5523 24.4043 30 23.875 30H21H4.70833H1.83333C1.30406 30 0.875 29.5523 0.875 29C0.875 28.4477 1.30406 28 1.83333 28H4.70833V2H1.83333C1.30406 2 0.875 1.55228 0.875 1ZM6.625 2V9H19.0833V2H6.625ZM19.0833 11H6.625V19H19.0833V11ZM19.0833 21H6.625V28H19.0833V21Z" fill="#2979FF"/>
</symbol>
<symbol id="warranty_icon" viewBox="0 0 28 32">
<path fill-rule="evenodd" clip-rule="evenodd" d="M19.856 1.12C17.686 0.53 15.38 0 14 0C12.62 0 10.314 0.53 8.14401 1.12C6.20562 1.65345 4.28039 2.23362 2.37001 2.86C1.81979 3.0417 1.33199 3.37493 0.962645 3.8214C0.593297 4.26787 0.357385 4.80948 0.282011 5.384C-0.909989 14.338 1.85601 20.974 5.21201 25.364C6.63517 27.2419 8.33207 28.8957 10.246 30.27C10.9078 30.7456 11.609 31.1638 12.342 31.52C12.904 31.784 13.504 32 14 32C14.496 32 15.098 31.784 15.658 31.52C16.391 31.1637 17.0922 30.7456 17.754 30.27C19.668 28.8957 21.3649 27.242 22.788 25.364C26.144 20.974 28.91 14.338 27.718 5.384C27.6426 4.80948 27.4067 4.26787 27.0374 3.8214C26.668 3.37493 26.1802 3.0417 25.63 2.86C24.314 2.43 22.076 1.72 19.856 1.12ZM25.005 4.75985C23.7017 4.33402 21.5034 3.63699 19.3342 3.05073L19.3313 3.04994C17.1159 2.44761 15.0682 2 14 2C12.9323 2 10.8859 2.4472 8.67172 3.04913C6.7662 3.57358 4.8736 4.14392 2.99558 4.75965C2.8033 4.82348 2.63284 4.94011 2.50368 5.09624C2.37417 5.25279 2.29145 5.44271 2.26502 5.64416L2.26452 5.64792C1.15039 14.017 3.72862 20.1305 6.80091 24.1493L6.80601 24.156L6.80599 24.156C8.10831 25.8745 9.66112 27.3878 11.4125 28.6454L11.4131 28.6458C11.9788 29.0523 12.578 29.4101 13.2041 29.7153C13.4283 29.8201 13.6237 29.898 13.7849 29.9477C13.9141 29.9876 13.9826 29.9971 14.0001 29.9993C14.0176 29.9971 14.0866 29.9876 14.2164 29.9476C14.3779 29.8978 14.5734 29.8198 14.7956 29.7155C15.4219 29.4102 16.0211 29.0524 16.5869 28.6458L16.5875 28.6454C18.339 27.3878 19.8917 25.8745 21.194 24.1561L21.1991 24.1493L21.1991 24.1493C24.2714 20.1305 26.8496 14.017 25.7355 5.64792L25.735 5.64416C25.7086 5.44271 25.6259 5.25279 25.4963 5.09624C25.3673 4.94028 25.1971 4.82372 25.005 4.75985Z" fill="#2979FF"/>
<path fill-rule="evenodd" clip-rule="evenodd" d="M14 8C13.4477 8 13 8.44772 13 9V14.0001H8C7.44772 14.0001 7 14.4478 7 15.0001C7 15.5524 7.44772 16.0001 8 16.0001H13V21C13 21.5523 13.4477 22 14 22C14.5523 22 15 21.5523 15 21V16.0001H20C20.5523 16.0001 21 15.5524 21 15.0001C21 14.4478 20.5523 14.0001 20 14.0001H15V9C15 8.44772 14.5523 8 14 8Z" fill="#2979FF"/>
</symbol>
<symbol id="well_orange_icon" viewBox="0 0 16 16">
<circle cx="8" cy="8" r="8" fill="#FF6E00"/>
<path fill-rule="evenodd" clip-rule="evenodd" d="M8 4C8.55228 4 9 4.44772 9 5V7.75C9 8.30228 8.55228 8.75 8 8.75C7.44772 8.75 7 8.30228 7 7.75V5C7 4.44772 7.44772 4 8 4Z" fill="white"/>
<path fill-rule="evenodd" clip-rule="evenodd" d="M7 10.5C7 9.94772 7.44772 9.5 8 9.5H8.00518C8.55746 9.5 9.00518 9.94772 9.00518 10.5C9.00518 11.0523 8.55746 11.5 8.00518 11.5H8C7.44772 11.5 7 11.0523 7 10.5Z" fill="white"/>
</symbol>
<symbol id="well_blue_icon" viewBox="0 0 16 16" fill="none">
<circle cx="8" cy="8" r="7.24361" stroke="#94BCFF" stroke-width="0.512786"/>
<circle cx="8" cy="8" r="6" fill="#CADDFF"/>
<circle cx="8" cy="8" r="4" fill="#2979FF"/>
</symbol>
<symbol id="time_history_icon" viewBox="0 0 24 24">
<path fill-rule="evenodd" clip-rule="evenodd" d="M8 6H5.11409C7.04466 3.79137 9.15921 3 12 3C16.9706 3 21 7.02944 21 12C21 16.9706 16.9706 21 12 21C7.02944 21 3 16.9706 3 12H1C1 18.0751 5.92487 23 12 23C18.0751 23 23 18.0751 23 12C23 5.92487 18.0751 1 12 1C8.78663 1 6.23708 1.91056 4 4.25645V1.99121H2V8H8V6ZM17 11H13V6H11V13H17V11Z" fill="#2979FF"/>
</symbol>
<symbol id="chat_bubble_icon" viewBox="0 0 20 20">
<path d="M20 2H4C2.9 2 2 2.9 2 4V22L6 18H20C21.1 18 22 17.1 22 16V4C22 2.9 21.1 2 20 2Z" fill="#2979FF"/>
</symbol>
<symbol id="phone_icon" viewBox="0 0 19 24">
<path d="M4.8598 0.127714C5.51618 -0.0701856 6.22053 -0.0373077 6.85562 0.220874C7.4907 0.479056 8.0182 0.946967 8.35031 1.54671L8.4628 1.77021L9.45431 3.97671C9.75567 4.64644 9.85349 5.38999 9.73561 6.11487C9.61773 6.83975 9.28935 7.51399 8.7913 8.05371L8.5933 8.25171L7.02731 9.71121C6.74531 9.97821 6.9568 11.0117 7.9783 12.7787C8.8948 14.3687 9.6433 15.1112 10.0093 15.1517H10.0738L10.1533 15.1367L13.2283 14.1962C13.6416 14.0695 14.0826 14.0645 14.4986 14.1818C14.9147 14.2991 15.2881 14.5337 15.5743 14.8577L15.7123 15.0302L17.7463 17.8502C18.1454 18.4028 18.3445 19.0748 18.3107 19.7556C18.2769 20.4364 18.0122 21.0854 17.5603 21.5957L17.3773 21.7847L16.5628 22.5557C15.8327 23.2471 14.9195 23.7143 13.9317 23.9018C12.9438 24.0892 11.9229 23.9891 10.9903 23.6132C8.08781 22.4432 5.4508 19.7702 3.0553 15.6212C0.655304 11.4617 -0.342196 7.83621 0.103304 4.73121C0.238246 3.79244 0.62497 2.90776 1.22239 2.17115C1.81981 1.43455 2.60561 0.873534 3.4963 0.547714L3.7858 0.451714L4.8598 0.127714Z" fill="#2979FF"/>
</symbol>
<symbol id="dropdown_icon" viewBox="0 0 24 24">
<path fill-rule="evenodd" clip-rule="evenodd" d="M6.19526 8.4477C6.45561 8.1841 6.87772 8.1841 7.13807 8.4477L12 13.3704L16.8619 8.4477C17.1223 8.1841 17.5444 8.1841 17.8047 8.4477C18.0651 8.71131 18.0651 9.13869 17.8047 9.4023L12.4714 14.8023C12.2111 15.0659 11.7889 15.0659 11.5286 14.8023L6.19526 9.4023C5.93491 9.13869 5.93491 8.71131 6.19526 8.4477Z" fill="#1A1A1A" fill-opacity="0.9"/>
</symbol>
<symbol id="add_icon" viewBox="0 0 32 32">
<path fill-rule="evenodd" clip-rule="evenodd" d="M16 28C22.6274 28 28 22.6274 28 16C28 9.37258 22.6274 4 16 4C9.37258 4 4 9.37258 4 16C4 22.6274 9.37258 28 16 28ZM30 16C30 23.732 23.732 30 16 30C8.26801 30 2 23.732 2 16C2 8.26801 8.26801 2 16 2C23.732 2 30 8.26801 30 16Z" fill="#A0A0A0"/>
<path fill-rule="evenodd" clip-rule="evenodd" d="M16 9.66675C16.5523 9.66675 17 10.1145 17 10.6667V21.3334C17 21.8857 16.5523 22.3334 16 22.3334C15.4477 22.3334 15 21.8857 15 21.3334V10.6667C15 10.1145 15.4477 9.66675 16 9.66675Z" fill="#A0A0A0"/>
<path fill-rule="evenodd" clip-rule="evenodd" d="M9.66675 16C9.66675 15.4477 10.1145 15 10.6667 15H21.3334C21.8857 15 22.3334 15.4477 22.3334 16C22.3334 16.5523 21.8857 17 21.3334 17H10.6667C10.1145 17 9.66675 16.5523 9.66675 16Z" fill="#A0A0A0"/>
</symbol>
<symbol id="calender_icon" viewBox="0 0 16 16">
<path fill-rule="evenodd" clip-rule="evenodd" d="M11.1666 0.666748C11.1666 0.390606 10.9427 0.166748 10.6666 0.166748C10.3905 0.166748 10.1666 0.390606 10.1666 0.666748V1.50008H5.83325V0.666748C5.83325 0.390606 5.60939 0.166748 5.33325 0.166748C5.05711 0.166748 4.83325 0.390606 4.83325 0.666748V1.50008H2.81473C1.72039 1.50008 0.833252 2.38722 0.833252 3.48156V6.66675V13.8519C0.833252 14.9463 1.72039 15.8334 2.81473 15.8334H13.1851C14.2794 15.8334 15.1666 14.9463 15.1666 13.8519V6.66675V3.48156C15.1666 2.38722 14.2794 1.50008 13.1851 1.50008H11.1666V0.666748ZM14.1666 6.16675V3.48156C14.1666 2.9395 13.7272 2.50008 13.1851 2.50008H11.1666V3.33341C11.1666 3.60956 10.9427 3.83341 10.6666 3.83341C10.3905 3.83341 10.1666 3.60956 10.1666 3.33341V2.50008H5.83325V3.33341C5.83325 3.60956 5.60939 3.83341 5.33325 3.83341C5.05711 3.83341 4.83325 3.60956 4.83325 3.33341V2.50008H2.81473C2.27268 2.50008 1.83325 2.9395 1.83325 3.48156V6.16675H14.1666ZM1.83325 7.16675H14.1666V13.8519C14.1666 14.394 13.7272 14.8334 13.1851 14.8334H2.81473C2.27268 14.8334 1.83325 14.394 1.83325 13.8519V7.16675Z" fill="black"/>
</symbol>
<symbol id="upload_icon" viewBox="0 0 12 13">
<path fill-rule="evenodd" clip-rule="evenodd" d="M0.461538 7.44067C0.716439 7.44067 0.923077 7.64731 0.923077 7.90221V10.3638C0.923077 10.5678 1.00412 10.7634 1.14838 10.9077C1.29264 11.0519 1.4883 11.133 1.69231 11.133H10.3077C10.5117 11.133 10.7074 11.0519 10.8516 10.9077C10.9959 10.7634 11.0769 10.5678 11.0769 10.3638V7.90221C11.0769 7.64731 11.2836 7.44067 11.5385 7.44067C11.7934 7.44067 12 7.64731 12 7.90221V10.3638C12 10.8126 11.8217 11.243 11.5043 11.5604C11.187 11.8778 10.7565 12.0561 10.3077 12.0561H1.69231C1.24348 12.0561 0.813034 11.8778 0.495665 11.5604C0.178296 11.243 0 10.8126 0 10.3638V7.90221C0 7.64731 0.206638 7.44067 0.461538 7.44067Z" fill="#585858"/>
<path fill-rule="evenodd" clip-rule="evenodd" d="M6.00011 0.0561523C6.25501 0.0561523 6.46165 0.26279 6.46165 0.517691V7.90231C6.46165 8.15721 6.25501 8.36384 6.00011 8.36384C5.74521 8.36384 5.53857 8.15721 5.53857 7.90231V0.517691C5.53857 0.26279 5.74521 0.0561523 6.00011 0.0561523Z" fill="#585858"/>
<path fill-rule="evenodd" clip-rule="evenodd" d="M5.99989 0.0561523C6.1223 0.0561523 6.23969 0.104779 6.32624 0.191334L9.40317 3.26826C9.58341 3.4485 9.58341 3.74073 9.40317 3.92097C9.22293 4.10121 8.9307 4.10121 8.75045 3.92097L5.99989 1.1704L3.24932 3.92097C3.06908 4.10121 2.77685 4.10121 2.59661 3.92097C2.41637 3.74073 2.41637 3.4485 2.59661 3.26826L5.67353 0.191334C5.76009 0.104779 5.87748 0.0561523 5.99989 0.0561523Z" fill="#585858"/>
</symbol>
</defs></svg>




